<svg xmlns="http://www.w3.org/2000/svg" width="27.97" height="36" viewBox="0 0 27.97 36">
  <metadata><?xpacket begin="﻿" id="W5M0MpCehiHzreSzNTczkc9d"?>
<x:xmpmeta xmlns:x="adobe:ns:meta/" x:xmptk="Adobe XMP Core 5.6-c142 79.160924, 2017/07/13-01:06:39        ">
   <rdf:RDF xmlns:rdf="http://www.w3.org/1999/02/22-rdf-syntax-ns#">
      <rdf:Description rdf:about=""/>
   </rdf:RDF>
</x:xmpmeta>
                                                                                                    
                                                                                                    
                                                                                                    
                                                                                                    
                                                                                                    
                                                                                                    
                                                                                                    
                                                                                                    
                                                                                                    
                                                                                                    
                                                                                                    
                                                                                                    
                                                                                                    
                                                                                                    
                                                                                                    
                                                                                                    
                                                                                                    
                                                                                                    
                                                                                                    
                                                                                                    
                           
<?xpacket end="w"?></metadata>
<defs>
    <style>
      .cls-1 {
        fill: #fff;
        fill-rule: evenodd;
      }
    </style>
  </defs>
  <path id="Forma_1" data-name="Forma 1" class="cls-1" d="M1347.01,43.014a13.822,13.822,0,0,0-13.99,13.632c0,7.321,12.9,21.509,13.45,22.1a0.725,0.725,0,0,0,1.01.055l0.06-.055c0.55-.6,13.45-14.784,13.45-22.1A13.823,13.823,0,0,0,1347.01,43.014Zm0,34.2c-2.46-2.8-12.55-14.578-12.55-20.576a12.554,12.554,0,0,1,25.1,0C1359.56,62.637,1349.47,74.424,1347.01,77.215Zm0.25-27.364a7.387,7.387,0,1,0,7.59,7.384A7.491,7.491,0,0,0,1347.26,49.851Zm0,13.373a5.984,5.984,0,1,1,6.14-5.981A6.062,6.062,0,0,1,1347.26,63.225Z" transform="translate(-1333.03 -43)"/>
</svg>
