<svg xmlns="http://www.w3.org/2000/svg" width="30" height="25" viewBox="0 0 30 25">
  <metadata><?xpacket begin="﻿" id="W5M0MpCehiHzreSzNTczkc9d"?>
<x:xmpmeta xmlns:x="adobe:ns:meta/" x:xmptk="Adobe XMP Core 5.6-c142 79.160924, 2017/07/13-01:06:39        ">
   <rdf:RDF xmlns:rdf="http://www.w3.org/1999/02/22-rdf-syntax-ns#">
      <rdf:Description rdf:about=""/>
   </rdf:RDF>
</x:xmpmeta>
                                                                                                    
                                                                                                    
                                                                                                    
                                                                                                    
                                                                                                    
                                                                                                    
                                                                                                    
                                                                                                    
                                                                                                    
                                                                                                    
                                                                                                    
                                                                                                    
                                                                                                    
                                                                                                    
                                                                                                    
                                                                                                    
                                                                                                    
                                                                                                    
                                                                                                    
                                                                                                    
                           
<?xpacket end="w"?></metadata>
<defs>
    <style>
      .cls-1 {
        fill: #a5803f;
        fill-rule: evenodd;
      }
    </style>
  </defs>
  <path id="Forma_1" data-name="Forma 1" class="cls-1" d="M82.625,1238.5H79.5a0.625,0.625,0,0,0,0,1.25h3.125a1.874,1.874,0,0,1,1.767,1.25H78.875a0.625,0.625,0,1,0,0,1.25h6.25a0.626,0.626,0,0,0,.625-0.63A3.126,3.126,0,0,0,82.625,1238.5Zm14.228,0.22a0.628,0.628,0,0,0-.478-0.22h-8.75a0.628,0.628,0,0,0-.477.22,0.638,0.638,0,0,0-.139.51l0.625,3.75a0.624,0.624,0,0,0,.616.52h7.5a0.624,0.624,0,0,0,.616-0.52l0.625-3.75A0.629,0.629,0,0,0,96.853,1238.72Zm-1.633,3.53H88.78l-0.417-2.5h7.275Zm-13.285-8.41-1.25-2.5a0.626,0.626,0,0,0-.379-0.31,2.871,2.871,0,0,0-2.4.31A2.512,2.512,0,0,0,77,1233.5c0,1.17,1.892,1.67,3.019,1.87h0.106a0.675,0.675,0,0,0,.28-0.06l1.25-.63A0.627,0.627,0,0,0,81.935,1233.84Zm-1.9.26a6.1,6.1,0,0,1-1.784-.6,1.394,1.394,0,0,1,.4-1.16,1.217,1.217,0,0,1,.726-0.19,3.156,3.156,0,0,1,.326.02l0.836,1.68Zm23.143-.31c-0.916-2.93-3.145-6.35-4.647-7.1-0.854-.43-4.055-0.69-6.53-0.69s-5.676.26-6.529,0.69c-1.5.75-3.733,4.17-4.647,7.1A10.992,10.992,0,0,0,78.25,1241c0,1.32.126,4.44,1.25,5.86v2.26a1.878,1.878,0,0,0,1.875,1.88h1.25a1.878,1.878,0,0,0,1.875-1.88v-1.16a66.749,66.749,0,0,0,7.5.54,66.755,66.755,0,0,0,7.5-.54v1.16a1.877,1.877,0,0,0,1.875,1.88h1.25a1.877,1.877,0,0,0,1.875-1.88v-2.26c1.124-1.42,1.25-4.54,1.25-5.86A11,11,0,0,0,103.177,1233.79Zm0.256,12.39a0.637,0.637,0,0,0-.183.44v2.5a0.627,0.627,0,0,1-.625.63h-1.25a0.627,0.627,0,0,1-.625-0.63v-1.87a0.638,0.638,0,0,0-.625-0.63c-0.028,0-.058.01-0.085,0.01a70.43,70.43,0,0,1-8.04.62,70.428,70.428,0,0,1-8.04-.62,0.6,0.6,0,0,0-.495.15,0.626,0.626,0,0,0-.215.47v1.87a0.627,0.627,0,0,1-.625.63h-1.25a0.627,0.627,0,0,1-.625-0.63v-2.5a0.639,0.639,0,0,0-.183-0.44c-0.639-.64-1.068-2.72-1.068-5.18,0-2.02.722-4.89,2.31-6.43a0.556,0.556,0,0,0,.165-0.27c0.892-2.99,3.075-6,4.055-6.49a24.255,24.255,0,0,1,5.97-.56,24.254,24.254,0,0,1,5.97.56c0.98,0.49,3.162,3.5,4.055,6.49a0.559,0.559,0,0,0,.165.27c1.587,1.54,2.31,4.41,2.31,6.43C104.5,1243.46,104.071,1245.54,103.433,1246.18Zm-0.186-12.11a0.629,0.629,0,0,0-.671-0.57c-0.08.01-7.975,0.62-10.576,0.62s-10.5-.61-10.576-0.62a0.636,0.636,0,0,0-.671.58,0.626,0.626,0,0,0,.574.67c0.326,0.02,8.024.62,10.674,0.62s10.347-.6,10.674-0.62A0.63,0.63,0,0,0,103.247,1234.07Zm1.878,6.93H99.607a1.874,1.874,0,0,1,1.768-1.25H104.5a0.625,0.625,0,1,0,0-1.25h-3.125a3.126,3.126,0,0,0-3.125,3.12,0.626,0.626,0,0,0,.625.63h6.25A0.625,0.625,0,1,0,105.125,1241Zm0.969-9.66a2.871,2.871,0,0,0-2.4-.31,0.625,0.625,0,0,0-.379.31l-1.25,2.5a0.625,0.625,0,0,0,.28.84l1.25,0.63a0.674,0.674,0,0,0,.28.06h0.106c1.126-.2,3.019-0.7,3.019-1.87A2.512,2.512,0,0,0,106.094,1231.34Zm-2.128,2.76-0.5-.26,0.836-1.67a1.513,1.513,0,0,1,1.052.17,1.383,1.383,0,0,1,.418,1.07A4.282,4.282,0,0,1,103.966,1234.1Zm-19.989,12.53-3.75-.62a0.623,0.623,0,1,0-.2,1.23l3.75,0.63h0.1a0.62,0.62,0,0,0,.615-0.52A0.628,0.628,0,0,0,83.977,1246.63Zm20.514-.11a0.625,0.625,0,0,0-.719-0.51l-3.75.62a0.627,0.627,0,0,0-.513.72,0.62,0.62,0,0,0,.615.52h0.1l3.75-.63A0.627,0.627,0,0,0,104.491,1246.52Z" transform="translate(-77 -1226)"/>
</svg>
