<svg xmlns="http://www.w3.org/2000/svg" width="40" height="30" viewBox="0 0 40 30">
  <metadata><?xpacket begin="﻿" id="W5M0MpCehiHzreSzNTczkc9d"?>
<x:xmpmeta xmlns:x="adobe:ns:meta/" x:xmptk="Adobe XMP Core 5.6-c142 79.160924, 2017/07/13-01:06:39        ">
   <rdf:RDF xmlns:rdf="http://www.w3.org/1999/02/22-rdf-syntax-ns#">
      <rdf:Description rdf:about=""/>
   </rdf:RDF>
</x:xmpmeta>
                                                                                                    
                                                                                                    
                                                                                                    
                                                                                                    
                                                                                                    
                                                                                                    
                                                                                                    
                                                                                                    
                                                                                                    
                                                                                                    
                                                                                                    
                                                                                                    
                                                                                                    
                                                                                                    
                                                                                                    
                                                                                                    
                                                                                                    
                                                                                                    
                                                                                                    
                                                                                                    
                           
<?xpacket end="w"?></metadata>
<defs>
    <style>
      .cls-1 {
        fill: #fff;
        fill-rule: evenodd;
      }
    </style>
  </defs>
  <path class="cls-1" d="M1743.33,70.545h-6V69.181H1742a0.64,0.64,0,0,0,.67-0.682c0-10.876-7.86-19.4-18-19.76V47.363h2.66a0.682,0.682,0,0,0,0-1.364h-6.66a0.682,0.682,0,0,0,0,1.364h2.66v1.376c-10.14.36-18,8.884-18,19.76a0.64,0.64,0,0,0,.67.682h4.67v1.363h-6a0.64,0.64,0,0,0-.67.681v4.091a0.64,0.64,0,0,0,.67.683h38.66a0.64,0.64,0,0,0,.67-0.683V71.226A0.64,0.64,0,0,0,1743.33,70.545ZM1724,50.09c9.53,0,17,7.7,17.33,17.726h-34.66C1707,57.794,1714.53,50.09,1724,50.09Zm-12,19.091h24v1.363h-24V69.181Zm30.67,5.454h-37.34V71.908h37.34v2.727Z" transform="translate(-1704 -46)"/>
</svg>
