<svg xmlns="http://www.w3.org/2000/svg" width="35" height="23" viewBox="0 0 35 23">
  <metadata><?xpacket begin="﻿" id="W5M0MpCehiHzreSzNTczkc9d"?>
<x:xmpmeta xmlns:x="adobe:ns:meta/" x:xmptk="Adobe XMP Core 5.6-c142 79.160924, 2017/07/13-01:06:39        ">
   <rdf:RDF xmlns:rdf="http://www.w3.org/1999/02/22-rdf-syntax-ns#">
      <rdf:Description rdf:about=""/>
   </rdf:RDF>
</x:xmpmeta>
                                                                                                    
                                                                                                    
                                                                                                    
                                                                                                    
                                                                                                    
                                                                                                    
                                                                                                    
                                                                                                    
                                                                                                    
                                                                                                    
                                                                                                    
                                                                                                    
                                                                                                    
                                                                                                    
                                                                                                    
                                                                                                    
                                                                                                    
                                                                                                    
                                                                                                    
                                                                                                    
                           
<?xpacket end="w"?></metadata>
<defs>
    <style>
      .cls-1 {
        fill: #fff;
        fill-rule: evenodd;
      }
    </style>
  </defs>
  <path id="Forma_1" data-name="Forma 1" class="cls-1" d="M1469.55,49.991h-32.11a1.454,1.454,0,0,0-1.44,1.474V71.535a1.454,1.454,0,0,0,1.44,1.473h32.11a1.454,1.454,0,0,0,1.44-1.473V51.465A1.454,1.454,0,0,0,1469.55,49.991Zm-32.11,1.157h32.11a0.311,0.311,0,0,1,.29.225l-16.35,10.443-16.35-10.443A0.313,0.313,0,0,1,1437.44,51.149Zm-0.31,1.544,11.76,7.51-11.76,9.541V52.693Zm32.73,18.833a0.315,0.315,0,0,1-.31.317h-32.11a0.315,0.315,0,0,1-.31-0.317V71.217l12.78-10.326,3.28,2.1a0.566,0.566,0,0,0,.61,0l3.28-2.1,12.78,10.326v0.309Zm0-1.782-11.79-9.511,11.79-7.471V69.744Z" transform="translate(-1436 -50)"/>
</svg>
