<svg xmlns="http://www.w3.org/2000/svg" width="19.84" height="20" viewBox="0 0 19.84 20">
  <metadata><?xpacket begin="﻿" id="W5M0MpCehiHzreSzNTczkc9d"?>
<x:xmpmeta xmlns:x="adobe:ns:meta/" x:xmptk="Adobe XMP Core 5.6-c142 79.160924, 2017/07/13-01:06:39        ">
   <rdf:RDF xmlns:rdf="http://www.w3.org/1999/02/22-rdf-syntax-ns#">
      <rdf:Description rdf:about=""/>
   </rdf:RDF>
</x:xmpmeta>
                                                                                                    
                                                                                                    
                                                                                                    
                                                                                                    
                                                                                                    
                                                                                                    
                                                                                                    
                                                                                                    
                                                                                                    
                                                                                                    
                                                                                                    
                                                                                                    
                                                                                                    
                                                                                                    
                                                                                                    
                                                                                                    
                                                                                                    
                                                                                                    
                                                                                                    
                                                                                                    
                           
<?xpacket end="w"?></metadata>
<defs>
    <style>
      .cls-1 {
        fill: #fff;
        fill-rule: evenodd;
      }
    </style>
  </defs>
  <path id="Фигура_6" data-name="Фигура 6" class="cls-1" d="M1102.3,1934.8c2.65,0,2.96.01,4.01,0.06a5.516,5.516,0,0,1,1.84.34,3.1,3.1,0,0,1,1.14.75,3.037,3.037,0,0,1,.74,1.15,5.354,5.354,0,0,1,.34,1.86c0.05,1.05.06,1.37,0.06,4.04s-0.01,2.98-.06,4.04a5.466,5.466,0,0,1-.34,1.86,3.117,3.117,0,0,1-.74,1.15,3.079,3.079,0,0,1-1.14.74,5.445,5.445,0,0,1-1.84.35c-1.05.05-1.36,0.06-4.01,0.06s-2.96-.01-4.01-0.06a5.445,5.445,0,0,1-1.84-.35,3,3,0,0,1-1.14-.74,3.117,3.117,0,0,1-.74-1.15,5.658,5.658,0,0,1-.35-1.86c-0.04-1.06-.05-1.37-0.05-4.04s0.01-2.99.05-4.04a5.537,5.537,0,0,1,.35-1.86,3.3,3.3,0,0,1,1.88-1.9,5.516,5.516,0,0,1,1.84-.34c1.05-.05,1.36-0.06,4.01-0.06m0-1.8c-2.7,0-3.03.01-4.09,0.06a7.455,7.455,0,0,0-2.41.46,4.988,4.988,0,0,0-1.76,1.16,4.8,4.8,0,0,0-1.14,1.77,7.273,7.273,0,0,0-.46,2.43c-0.05,1.06-.06,1.4-0.06,4.12s0.01,3.05.06,4.12a7.327,7.327,0,0,0,.46,2.43,4.876,4.876,0,0,0,1.14,1.77,4.825,4.825,0,0,0,1.76,1.15,7.168,7.168,0,0,0,2.41.47c1.06,0.05,1.39.06,4.09,0.06s3.03-.01,4.09-0.06a7.168,7.168,0,0,0,2.41-.47,4.71,4.71,0,0,0,1.75-1.15,4.778,4.778,0,0,0,1.15-1.77,7.592,7.592,0,0,0,.46-2.43c0.05-1.07.06-1.41,0.06-4.12s-0.01-3.06-.06-4.12a7.535,7.535,0,0,0-.46-2.43,4.7,4.7,0,0,0-1.15-1.77,4.866,4.866,0,0,0-1.75-1.16,7.455,7.455,0,0,0-2.41-.46c-1.06-.05-1.4-0.06-4.09-0.06h0Zm0,4.86a5.135,5.135,0,1,0,5.09,5.14A5.124,5.124,0,0,0,1102.3,1937.86Zm0,8.47a3.335,3.335,0,1,1,3.31-3.33A3.318,3.318,0,0,1,1102.3,1946.33Zm6.49-8.67a1.2,1.2,0,1,1-1.2-1.2A1.2,1.2,0,0,1,1108.79,1937.66Z" transform="translate(-1092.38 -1933)"/>
</svg>
