<svg xmlns="http://www.w3.org/2000/svg" width="23" height="33" viewBox="0 0 23 33">
  <metadata><?xpacket begin="﻿" id="W5M0MpCehiHzreSzNTczkc9d"?>
<x:xmpmeta xmlns:x="adobe:ns:meta/" x:xmptk="Adobe XMP Core 5.6-c142 79.160924, 2017/07/13-01:06:39        ">
   <rdf:RDF xmlns:rdf="http://www.w3.org/1999/02/22-rdf-syntax-ns#">
      <rdf:Description rdf:about=""/>
   </rdf:RDF>
</x:xmpmeta>
                                                                                                    
                                                                                                    
                                                                                                    
                                                                                                    
                                                                                                    
                                                                                                    
                                                                                                    
                                                                                                    
                                                                                                    
                                                                                                    
                                                                                                    
                                                                                                    
                                                                                                    
                                                                                                    
                                                                                                    
                                                                                                    
                                                                                                    
                                                                                                    
                                                                                                    
                                                                                                    
                           
<?xpacket end="w"?></metadata>
<defs>
    <style>
      .cls-1 {
        fill: #fff;
        fill-rule: evenodd;
      }
    </style>
  </defs>
  <path id="Forma_1" data-name="Forma 1" class="cls-1" d="M95.822,1323.95H87.177a7.122,7.122,0,0,0-7.183,7.04v15.61H103v-15.61A7.121,7.121,0,0,0,95.822,1323.95Zm6.049,21.54H81.127v-14.5a6,6,0,0,1,6.05-5.93h8.645a6,6,0,0,1,6.049,5.93v14.5ZM96.864,1321H86.1v1.11H96.864V1321h0ZM84.4,1338.85a2.105,2.105,0,1,0,2.148,2.1A2.126,2.126,0,0,0,84.4,1338.85Zm0,3.1a1,1,0,1,1,1.015-1A1.01,1.01,0,0,1,84.4,1341.95Zm14.161-3.1a2.105,2.105,0,1,0,2.148,2.1A2.126,2.126,0,0,0,98.557,1338.85Zm0,3.1a1,1,0,1,1,1.015-1A1.009,1.009,0,0,1,98.557,1341.95Zm-17.342,11.48L82.19,1354l3.69-6.12-0.975-.57Zm15.86-5.55,3.69,6.12,0.975-.57-3.689-6.12Zm2.9-16.69a3.638,3.638,0,0,0-3.672-3.6H86.653a3.638,3.638,0,0,0-3.672,3.6v5.77H99.974v-5.77Zm-1.133,4.66H84.114v-4.66a2.52,2.52,0,0,1,2.539-2.49H96.3a2.519,2.519,0,0,1,2.539,2.49v4.66h0Z" transform="translate(-80 -1321)"/>
</svg>
