<svg xmlns="http://www.w3.org/2000/svg" width="28.97" height="28.969" viewBox="0 0 28.97 28.969">
  <metadata><?xpacket begin="﻿" id="W5M0MpCehiHzreSzNTczkc9d"?>
<x:xmpmeta xmlns:x="adobe:ns:meta/" x:xmptk="Adobe XMP Core 5.6-c142 79.160924, 2017/07/13-01:06:39        ">
   <rdf:RDF xmlns:rdf="http://www.w3.org/1999/02/22-rdf-syntax-ns#">
      <rdf:Description rdf:about=""/>
   </rdf:RDF>
</x:xmpmeta>
                                                                                                    
                                                                                                    
                                                                                                    
                                                                                                    
                                                                                                    
                                                                                                    
                                                                                                    
                                                                                                    
                                                                                                    
                                                                                                    
                                                                                                    
                                                                                                    
                                                                                                    
                                                                                                    
                                                                                                    
                                                                                                    
                                                                                                    
                                                                                                    
                                                                                                    
                                                                                                    
                           
<?xpacket end="w"?></metadata>
<defs>
    <style>
      .cls-1 {
        fill: #fff;
        fill-rule: evenodd;
      }
    </style>
  </defs>
  <path id="Forma_1" data-name="Forma 1" class="cls-1" d="M1052.98,72.86a2.25,2.25,0,0,0-1.11-1.648l-7.15-4.117a2.24,2.24,0,0,0-2.7.357l-1.41,1.408a1.033,1.033,0,0,1-1.38.078,41.749,41.749,0,0,1-3.25-2.923,41.155,41.155,0,0,1-2.92-3.25,1.028,1.028,0,0,1,.08-1.379l1.4-1.409a2.228,2.228,0,0,0,.36-2.7l-4.12-7.153a2.234,2.234,0,0,0-3.52-.465l-2.12,2.122c-1.49,1.482-1.51,4.192-.07,7.63a33.535,33.535,0,0,0,7.27,10.249,33.628,33.628,0,0,0,10.25,7.268,11.969,11.969,0,0,0,4.49,1.062,4.277,4.277,0,0,0,3.14-1.129l2.12-2.123A2.222,2.222,0,0,0,1052.98,72.86Zm-8.73-4.951,7.16,4.117a1.294,1.294,0,0,1,.39,1.9l-9.5-5.425,0.38-.386A1.306,1.306,0,0,1,1044.25,67.908Zm-15.24-17.956a1.284,1.284,0,0,1,.96.641l4.12,7.152a1.3,1.3,0,0,1-.21,1.569l-0.35.354-5.46-9.473a1.286,1.286,0,0,1,.77-0.255A1.231,1.231,0,0,1,1029.01,49.952ZM1049.55,76.2c-1.17,1.177-3.58,1.128-6.6-.136A32.74,32.74,0,0,1,1033,69a32.617,32.617,0,0,1-7.06-9.948c-1.27-3.021-1.32-5.428-.14-6.605l1.58-1.575,5.46,9.487-0.37.365a1.968,1.968,0,0,0-.14,2.633,40.83,40.83,0,0,0,2.99,3.325,43.106,43.106,0,0,0,3.32,2.991,1.981,1.981,0,0,0,2.64-.147l0.33-.334,9.52,5.431Z" transform="translate(-1024 -49.031)"/>
</svg>
