<svg xmlns="http://www.w3.org/2000/svg" width="19.84" height="11.22" viewBox="0 0 19.84 11.22">
  <metadata><?xpacket begin="﻿" id="W5M0MpCehiHzreSzNTczkc9d"?>
<x:xmpmeta xmlns:x="adobe:ns:meta/" x:xmptk="Adobe XMP Core 5.6-c142 79.160924, 2017/07/13-01:06:39        ">
   <rdf:RDF xmlns:rdf="http://www.w3.org/1999/02/22-rdf-syntax-ns#">
      <rdf:Description rdf:about=""/>
   </rdf:RDF>
</x:xmpmeta>
                                                                                                    
                                                                                                    
                                                                                                    
                                                                                                    
                                                                                                    
                                                                                                    
                                                                                                    
                                                                                                    
                                                                                                    
                                                                                                    
                                                                                                    
                                                                                                    
                                                                                                    
                                                                                                    
                                                                                                    
                                                                                                    
                                                                                                    
                                                                                                    
                                                                                                    
                                                                                                    
                           
<?xpacket end="w"?></metadata>
<defs>
    <style>
      .cls-1 {
        fill: #fff;
        fill-rule: evenodd;
      }
    </style>
  </defs>
  <path id="Фигура_5" data-name="Фигура 5" class="cls-1" d="M1047.9,1947.51h1.18a1.021,1.021,0,0,0,.54-0.23,0.879,0.879,0,0,0,.17-0.52s-0.03-1.56.71-1.79,1.66,1.51,2.65,2.18a1.922,1.922,0,0,0,1.32.39l2.65-.03s1.39-.09.73-1.16a8.641,8.641,0,0,0-1.97-2.23c-1.66-1.52-1.44-1.27.56-3.89,1.22-1.6,1.71-2.57,1.56-2.99a1.16,1.16,0,0,0-1.04-.29l-2.99.02a0.7,0.7,0,0,0-.38.06,0.92,0.92,0,0,0-.27.32,16.736,16.736,0,0,1-1.1,2.28c-1.33,2.22-1.86,2.33-2.07,2.2-0.51-.32-0.38-1.29-0.38-1.98,0-2.14.33-3.04-.65-3.27a5.025,5.025,0,0,0-1.39-.14,6.678,6.678,0,0,0-2.48.25c-0.34.16-.6,0.53-0.44,0.55a1.369,1.369,0,0,1,.88.43,2.772,2.772,0,0,1,.3,1.33s0.17,2.52-.41,2.84c-0.4.22-.96-0.22-2.14-2.23a18.41,18.41,0,0,1-1.07-2.17,0.841,0.841,0,0,0-.24-0.33,1.186,1.186,0,0,0-.46-0.18l-2.83.02a1.007,1.007,0,0,0-.59.19,0.6,0.6,0,0,0-.01.5s2.22,5.1,4.74,7.67a6.894,6.894,0,0,0,4.92,2.2h0Z" transform="translate(-1038.19 -1936.44)"/>
</svg>
