<svg xmlns="http://www.w3.org/2000/svg" width="21.97" height="16" viewBox="0 0 21.97 16">
  <metadata><?xpacket begin="﻿" id="W5M0MpCehiHzreSzNTczkc9d"?>
<x:xmpmeta xmlns:x="adobe:ns:meta/" x:xmptk="Adobe XMP Core 5.6-c142 79.160924, 2017/07/13-01:06:39        ">
   <rdf:RDF xmlns:rdf="http://www.w3.org/1999/02/22-rdf-syntax-ns#">
      <rdf:Description rdf:about=""/>
   </rdf:RDF>
</x:xmpmeta>
                                                                                                    
                                                                                                    
                                                                                                    
                                                                                                    
                                                                                                    
                                                                                                    
                                                                                                    
                                                                                                    
                                                                                                    
                                                                                                    
                                                                                                    
                                                                                                    
                                                                                                    
                                                                                                    
                                                                                                    
                                                                                                    
                                                                                                    
                                                                                                    
                                                                                                    
                                                                                                    
                           
<?xpacket end="w"?></metadata>
<defs>
    <style>
      .cls-1 {
        fill: #fff;
        fill-rule: evenodd;
      }
    </style>
  </defs>
  <path class="cls-1" d="M1211.53,1951h0c-2.5,0-5.23-.08-8.1-0.24a3.453,3.453,0,0,1-3.2-3.23,44.344,44.344,0,0,1,0-9.07,3.461,3.461,0,0,1,3.2-3.23,119.5,119.5,0,0,1,15.14,0,3.437,3.437,0,0,1,3.2,3.23,44.327,44.327,0,0,1,0,9.07,3.453,3.453,0,0,1-3.2,3.23C1216.4,1950.92,1214.03,1951,1211.53,1951Zm-0.59-15.15c-2.49,0-5,.08-7.46.23a2.625,2.625,0,0,0-2.41,2.47,44.019,44.019,0,0,0,0,8.89,2.591,2.591,0,0,0,2.41,2.46c2.85,0.16,5.56.24,8.05,0.24s4.83-.08,6.98-0.24a2.591,2.591,0,0,0,2.41-2.46,42.589,42.589,0,0,0,0-8.89,2.607,2.607,0,0,0-2.4-2.47C1215.99,1935.93,1213.44,1935.85,1210.94,1935.85Zm-2.09,4.1v5.9l5.57-2.93Z" transform="translate(-1200 -1935)"/>
</svg>
