<svg xmlns="http://www.w3.org/2000/svg" width="17" height="17" viewBox="0 0 17 17">
  <defs>
    <style>
      .cls-1 {
        fill: #d4311c;
        fill-rule: evenodd;
      }
    </style>
  </defs>
  <path id="Forma_1" data-name="Forma 1" class="cls-1" d="M1347.58,1859.59h-2.3v-1.06a0.53,0.53,0,1,0-1.06,0v1.06h-3.19v-1.06a0.53,0.53,0,1,0-1.06,0v1.06h-3.19v-1.06a0.53,0.53,0,1,0-1.06,0v1.06h-2.3a1.419,1.419,0,0,0-1.42,1.42v12.57a1.413,1.413,0,0,0,1.42,1.42h14.16a1.413,1.413,0,0,0,1.42-1.42v-12.57A1.419,1.419,0,0,0,1347.58,1859.59Zm0.36,13.99a0.359,0.359,0,0,1-.36.36h-14.16a0.359,0.359,0,0,1-.36-0.36v-12.57a0.35,0.35,0,0,1,.36-0.35h2.3v1.06a0.53,0.53,0,1,0,1.06,0v-1.06h3.19v1.06a0.53,0.53,0,1,0,1.06,0v-1.06h3.19v1.06a0.53,0.53,0,1,0,1.06,0v-1.06h2.3a0.35,0.35,0,0,1,.36.35v12.57Zm-12.22-9.21h2.12v1.6h-2.12v-1.6Zm0,2.66h2.12v1.59h-2.12v-1.59Zm0,2.66h2.12v1.59h-2.12v-1.59Zm3.72,0h2.12v1.59h-2.12v-1.59Zm0-2.66h2.12v1.59h-2.12v-1.59Zm0-2.66h2.12v1.6h-2.12v-1.6Zm3.72,5.32h2.12v1.59h-2.12v-1.59Zm0-2.66h2.12v1.59h-2.12v-1.59Zm0-2.66h2.12v1.6h-2.12v-1.6Z" transform="translate(-1332 -1858)"/>
</svg>
