<svg xmlns="http://www.w3.org/2000/svg" width="19" height="19" viewBox="0 0 19 19">
  <defs>
    <style>
      .cls-1 {
        fill: #fff;
        fill-rule: evenodd;
      }
    </style>
  </defs>
  <path class="cls-1" d="M1199.21,42h-14.25a0.788,0.788,0,0,0-.79.792v5.542a0.79,0.79,0,1,0,1.58,0v-4.75h12.67V59.416h-12.67v-4.75a0.79,0.79,0,1,0-1.58,0v5.542a0.788,0.788,0,0,0,.79.792h14.25a0.788,0.788,0,0,0,.79-0.792V42.792A0.788,0.788,0,0,0,1199.21,42Zm-10.85,12.107a0.792,0.792,0,0,0,1.12,1.12l3.16-3.166h0L1192.7,52a0.05,0.05,0,0,1,.02-0.028,0.062,0.062,0,0,1,.02-0.034,0.062,0.062,0,0,0,.02-0.035,0.057,0.057,0,0,0,.02-0.032c0.01-.012.01-0.024,0.02-0.036s0.01-.023.01-0.034,0.01-.023.02-0.036,0.01-.025.01-0.037,0.01-.024.01-0.036,0.01-.026.01-0.039a0.066,0.066,0,0,1,.01-0.042V51.578a0.41,0.41,0,0,0,0-.156V51.387a0.065,0.065,0,0,1-.01-0.042c0-.014-0.01-0.026-0.01-0.039s-0.01-.024-0.01-0.036-0.01-.025-0.01-0.038-0.01-.024-0.02-0.035-0.01-.023-0.01-0.034-0.01-.024-0.02-0.036a0.056,0.056,0,0,0-.02-0.032,0.062,0.062,0,0,0-.02-0.035,0.061,0.061,0,0,1-.02-0.034A0.05,0.05,0,0,1,1192.7,51l-0.06-.058h0l-3.16-3.167a0.792,0.792,0,0,0-1.12,1.12l1.81,1.815h-8.38a0.792,0.792,0,0,0,0,1.583h8.38Z" transform="translate(-1181 -42)"/>
</svg>
