<svg xmlns="http://www.w3.org/2000/svg" width="15" height="15" viewBox="0 0 15 15">
  <defs>
    <style>
      .cls-1 {
        fill: #e31e24;
        fill-rule: evenodd;
      }
    </style>
  </defs>
  <path class="cls-1" d="M650.627,35.941a1.576,1.576,0,0,0-1.141-.521,1.628,1.628,0,0,0-1.154.518L647.265,37c-0.088-.047-0.175-0.091-0.26-0.134-0.121-.06-0.236-0.118-0.334-0.178a11.571,11.571,0,0,1-2.778-2.52,6.793,6.793,0,0,1-.911-1.431c0.277-.252.533-0.514,0.783-0.766,0.1-.094.189-0.192,0.284-0.286a1.538,1.538,0,0,0,0-2.325l-0.922-.917c-0.1-.1-0.213-0.212-0.314-0.32-0.2-.208-0.415-0.423-0.634-0.625A1.6,1.6,0,0,0,641.048,27a1.66,1.66,0,0,0-1.148.494l-0.006.007-1.148,1.152a2.46,2.46,0,0,0-.733,1.563,5.864,5.864,0,0,0,.433,2.493A14.424,14.424,0,0,0,641.028,37a15.871,15.871,0,0,0,5.289,4.123,8.272,8.272,0,0,0,2.97.873c0.071,0,.145.007,0.213,0.007a2.548,2.548,0,0,0,1.947-.833c0-.006.01-0.01,0.014-0.017a7.481,7.481,0,0,1,.591-0.608c0.145-.138.293-0.282,0.438-0.434a1.673,1.673,0,0,0,.51-1.162,1.612,1.612,0,0,0-.52-1.153Zm1.208,3.539s0,0,0,0c-0.131.141-.266,0.269-0.411,0.41a8.8,8.8,0,0,0-.652.672,1.63,1.63,0,0,1-1.269.535c-0.051,0-.105,0-0.155,0a7.345,7.345,0,0,1-2.633-.786,14.984,14.984,0,0,1-4.982-3.884,13.641,13.641,0,0,1-2.43-4.029,4.771,4.771,0,0,1-.378-2.1,1.536,1.536,0,0,1,.466-1l1.151-1.145a0.769,0.769,0,0,1,.513-0.239,0.723,0.723,0,0,1,.492.235l0.011,0.01c0.205,0.191.4,0.39,0.607,0.6,0.105,0.107.213,0.215,0.321,0.326L643.407,30a0.639,0.639,0,0,1,0,1.041c-0.1.1-.192,0.195-0.29,0.289-0.284.289-.554,0.558-0.847,0.82a0.069,0.069,0,0,0-.017.017,0.685,0.685,0,0,0-.176.763,0.318,0.318,0,0,1,.01.03,7.383,7.383,0,0,0,1.091,1.771l0,0a12.382,12.382,0,0,0,3,2.715,4.625,4.625,0,0,0,.416.225c0.121,0.06.236,0.118,0.334,0.178,0.013,0.006.027,0.017,0.04,0.024a0.736,0.736,0,0,0,.334.083,0.721,0.721,0,0,0,.513-0.232l1.155-1.149a0.766,0.766,0,0,1,.509-0.252,0.687,0.687,0,0,1,.486.245l0.007,0.007,1.86,1.852A0.662,0.662,0,0,1,651.835,39.48Z" transform="translate(-638 -27)"/>
</svg>
