<svg width="0" height="0" style="position:absolute"><symbol viewBox="0 0 27.97 36" id="icon-address"><path d="M13.98.014A13.822 13.822 0 0 0-.01 13.646c0 7.321 12.9 21.509 13.45 22.1a.725.725 0 0 0 1.01.055l.06-.055c.55-.6 13.45-14.784 13.45-22.1A13.823 13.823 0 0 0 13.98.014zm0 34.2c-2.46-2.8-12.55-14.578-12.55-20.576a12.554 12.554 0 0 1 25.1 0c0 5.999-10.09 17.786-12.55 20.577zm.25-27.364a7.387 7.387 0 1 0 7.59 7.384 7.491 7.491 0 0 0-7.59-7.383zm0 13.373a5.984 5.984 0 1 1 6.14-5.981 6.062 6.062 0 0 1-6.14 5.983z"/></symbol><symbol viewBox="0 0 6.97 13.97" id="icon-arrow-r"><path d="M6.86 6.69L.61.08a.368.368 0 0 0-.53 0 .417.417 0 0 0 0 .57l5.98 6.32-5.98 6.32a.4.4 0 0 0 0 .56.352.352 0 0 0 .26.12.357.357 0 0 0 .27-.12l6.25-6.6a.4.4 0 0 0 0-.56z"/></symbol><symbol viewBox="0 0 30 25" id="icon-auto"><path d="M5.625 12.5H2.5a.625.625 0 0 0 0 1.25h3.125A1.874 1.874 0 0 1 7.392 15H1.875a.625.625 0 1 0 0 1.25h6.25a.626.626 0 0 0 .625-.63 3.126 3.126 0 0 0-3.125-3.12zm14.228.22a.628.628 0 0 0-.478-.22h-8.75a.628.628 0 0 0-.477.22.638.638 0 0 0-.139.51l.625 3.75a.624.624 0 0 0 .616.52h7.5a.624.624 0 0 0 .616-.52l.625-3.75a.629.629 0 0 0-.138-.51zm-1.633 3.53h-6.44l-.417-2.5h7.275zM4.935 7.84l-1.25-2.5a.626.626 0 0 0-.379-.31 2.871 2.871 0 0 0-2.4.31A2.512 2.512 0 0 0 0 7.5c0 1.17 1.892 1.67 3.019 1.87h.106a.675.675 0 0 0 .28-.06l1.25-.63a.627.627 0 0 0 .28-.84zm-1.9.26a6.1 6.1 0 0 1-1.784-.6 1.394 1.394 0 0 1 .4-1.16 1.217 1.217 0 0 1 .726-.19 3.156 3.156 0 0 1 .326.02l.836 1.68zm23.143-.31c-.916-2.93-3.145-6.35-4.647-7.1-.854-.43-4.055-.69-6.53-.69S9.325.26 8.472.69c-1.5.75-3.733 4.17-4.647 7.1A10.992 10.992 0 0 0 1.25 15c0 1.32.126 4.44 1.25 5.86v2.26A1.878 1.878 0 0 0 4.375 25h1.25A1.878 1.878 0 0 0 7.5 23.12v-1.16a66.749 66.749 0 0 0 7.5.54 66.755 66.755 0 0 0 7.5-.54v1.16A1.877 1.877 0 0 0 24.375 25h1.25a1.877 1.877 0 0 0 1.875-1.88v-2.26c1.124-1.42 1.25-4.54 1.25-5.86a11 11 0 0 0-2.573-7.21zm.256 12.39a.637.637 0 0 0-.183.44v2.5a.627.627 0 0 1-.625.63h-1.25a.627.627 0 0 1-.625-.63v-1.87a.638.638 0 0 0-.625-.63c-.028 0-.058.01-.085.01a70.43 70.43 0 0 1-8.04.62 70.428 70.428 0 0 1-8.04-.62.6.6 0 0 0-.495.15.626.626 0 0 0-.215.47v1.87a.627.627 0 0 1-.625.63h-1.25a.627.627 0 0 1-.625-.63v-2.5a.639.639 0 0 0-.183-.44C2.929 19.54 2.5 17.46 2.5 15c0-2.02.722-4.89 2.31-6.43a.556.556 0 0 0 .165-.27c.892-2.99 3.075-6 4.055-6.49A24.255 24.255 0 0 1 15 1.25a24.254 24.254 0 0 1 5.97.56c.98.49 3.162 3.5 4.055 6.49a.559.559 0 0 0 .165.27c1.587 1.54 2.31 4.41 2.31 6.43 0 2.46-.429 4.54-1.067 5.18zm-.186-12.11a.629.629 0 0 0-.671-.57c-.08.01-7.975.62-10.576.62s-10.5-.61-10.576-.62a.636.636 0 0 0-.671.58.626.626 0 0 0 .574.67c.326.02 8.024.62 10.674.62s10.347-.6 10.674-.62a.63.63 0 0 0 .571-.68zM28.126 15h-5.519a1.874 1.874 0 0 1 1.768-1.25H27.5a.625.625 0 1 0 0-1.25h-3.125a3.126 3.126 0 0 0-3.125 3.12.626.626 0 0 0 .625.63h6.25a.625.625 0 1 0 0-1.25zm.969-9.66a2.871 2.871 0 0 0-2.4-.31.625.625 0 0 0-.379.31l-1.25 2.5a.625.625 0 0 0 .28.84l1.25.63a.674.674 0 0 0 .28.06h.106c1.126-.2 3.019-.7 3.019-1.87a2.512 2.512 0 0 0-.907-2.16zM26.967 8.1l-.5-.26.836-1.67a1.513 1.513 0 0 1 1.052.17 1.383 1.383 0 0 1 .418 1.07 4.282 4.282 0 0 1-1.807.69zM6.978 20.63l-3.75-.62a.623.623 0 1 0-.2 1.23l3.75.63h.1a.62.62 0 0 0 .615-.52.628.628 0 0 0-.516-.72zm20.514-.11a.625.625 0 0 0-.719-.51l-3.75.62a.627.627 0 0 0-.513.72.62.62 0 0 0 .615.52h.1l3.75-.63a.627.627 0 0 0 .516-.72z"/></symbol><symbol viewBox="0 0 40 30" id="icon-booking"><path d="M39.33 24.545h-6v-1.364H38a.64.64 0 0 0 .67-.682c0-10.876-7.86-19.4-18-19.76V1.363h2.66a.682.682 0 0 0 0-1.364h-6.66a.682.682 0 0 0 0 1.364h2.66v1.376c-10.14.36-18 8.884-18 19.76a.64.64 0 0 0 .67.682h4.67v1.363h-6a.64.64 0 0 0-.67.681v4.091a.64.64 0 0 0 .67.683h38.66a.64.64 0 0 0 .67-.683v-4.09a.64.64 0 0 0-.67-.681zM20 4.09c9.53 0 17 7.7 17.33 17.726H2.67C3 11.794 10.53 4.09 20 4.09zM8 23.181h24v1.363H8v-1.363zm30.67 5.454H1.33v-2.727h37.34v2.727z"/></symbol><symbol viewBox="0 0 23 23" id="icon-close"><path d="M.2 22.8a.693.693 0 0 0 .981 0l10.307-10.322L21.8 22.8a.694.694 0 1 0 .981-.981L12.468 11.5l10.31-10.321A.694.694 0 1 0 21.8.2L11.488 10.515 1.179.2a.694.694 0 1 0-.981.982L10.507 11.5.2 21.814a.7.7 0 0 0 0 .986z"/></symbol><symbol viewBox="0 0 35 23" id="icon-envelope"><path d="M33.55-.009H1.44A1.454 1.454 0 0 0 0 1.465v20.07a1.454 1.454 0 0 0 1.44 1.473h32.11a1.454 1.454 0 0 0 1.44-1.473V1.465a1.454 1.454 0 0 0-1.44-1.474zM1.44 1.148h32.11a.311.311 0 0 1 .29.225L17.49 11.816 1.14 1.373a.313.313 0 0 1 .3-.224zm-.31 1.544l11.76 7.51-11.76 9.541V2.693zm32.73 18.833a.315.315 0 0 1-.31.317H1.44a.315.315 0 0 1-.31-.317v-.308l12.78-10.326 3.28 2.1a.566.566 0 0 0 .61 0l3.28-2.1 12.78 10.326v.309zm0-1.782l-11.79-9.511 11.79-7.471v16.983z"/></symbol><symbol viewBox="0 0 10.28 20" id="icon-fb"><path d="M6.67 20v-9.12H9.7l.46-3.56H6.67V5.05a1.465 1.465 0 0 1 1.74-1.73h1.87V.14A25.6 25.6 0 0 0 7.56 0C4.87 0 3.03 1.66 3.03 4.7v2.62H-.01v3.56h3.04V20h3.64z"/></symbol><symbol viewBox="0 0 19.84 20" id="icon-inst"><path d="M9.92 1.8c2.65 0 2.96.01 4.01.06a5.516 5.516 0 0 1 1.84.34 3.1 3.1 0 0 1 1.14.75 3.037 3.037 0 0 1 .74 1.15 5.354 5.354 0 0 1 .34 1.86c.05 1.05.06 1.37.06 4.04s-.01 2.98-.06 4.04a5.466 5.466 0 0 1-.34 1.86 3.117 3.117 0 0 1-.74 1.15 3.079 3.079 0 0 1-1.14.74 5.445 5.445 0 0 1-1.84.35c-1.05.05-1.36.06-4.01.06s-2.96-.01-4.01-.06a5.445 5.445 0 0 1-1.84-.35 3 3 0 0 1-1.14-.74 3.117 3.117 0 0 1-.74-1.15 5.658 5.658 0 0 1-.35-1.86c-.04-1.06-.05-1.37-.05-4.04s.01-2.99.05-4.04a5.537 5.537 0 0 1 .35-1.86 3.3 3.3 0 0 1 1.88-1.9 5.516 5.516 0 0 1 1.84-.34c1.05-.05 1.36-.06 4.01-.06m0-1.8c-2.7 0-3.03.01-4.09.06a7.455 7.455 0 0 0-2.41.46 4.988 4.988 0 0 0-1.76 1.16A4.8 4.8 0 0 0 .52 3.45a7.273 7.273 0 0 0-.46 2.43C.01 6.94 0 7.28 0 10s.01 3.05.06 4.12a7.327 7.327 0 0 0 .46 2.43 4.876 4.876 0 0 0 1.14 1.77 4.825 4.825 0 0 0 1.76 1.15 7.168 7.168 0 0 0 2.41.47c1.06.05 1.39.06 4.09.06s3.03-.01 4.09-.06a7.168 7.168 0 0 0 2.41-.47 4.71 4.71 0 0 0 1.75-1.15 4.778 4.778 0 0 0 1.15-1.77 7.592 7.592 0 0 0 .46-2.43c.05-1.07.06-1.41.06-4.12s-.01-3.06-.06-4.12a7.535 7.535 0 0 0-.46-2.43 4.7 4.7 0 0 0-1.15-1.77A4.866 4.866 0 0 0 16.42.52a7.455 7.455 0 0 0-2.41-.46C12.95.01 12.61 0 9.92 0zm0 4.86A5.135 5.135 0 1 0 15.01 10a5.124 5.124 0 0 0-5.09-5.14zm0 8.47A3.335 3.335 0 1 1 13.23 10a3.318 3.318 0 0 1-3.31 3.33zm6.49-8.67a1.2 1.2 0 1 1-1.2-1.2 1.2 1.2 0 0 1 1.2 1.2z"/></symbol><symbol viewBox="0 0 492 492" id="icon-left-arrow"><path d="M198.608 246.104L382.664 62.04c5.068-5.056 7.856-11.816 7.856-19.024 0-7.212-2.788-13.968-7.856-19.032l-16.128-16.12C361.476 2.792 354.712 0 347.504 0s-13.964 2.792-19.028 7.864L109.328 227.008c-5.084 5.08-7.868 11.868-7.848 19.084-.02 7.248 2.76 14.028 7.848 19.112l218.944 218.932c5.064 5.072 11.82 7.864 19.032 7.864 7.208 0 13.964-2.792 19.032-7.864l16.124-16.12c10.492-10.492 10.492-27.572 0-38.06L198.608 246.104z"/></symbol><symbol viewBox="0 0 23 33" id="icon-metro"><path d="M15.822 2.95H7.177A7.122 7.122 0 0 0-.006 9.99V25.6H23V9.99a7.121 7.121 0 0 0-7.178-7.04zm6.049 21.54H1.127V9.99a6 6 0 0 1 6.05-5.93h8.645a6 6 0 0 1 6.049 5.93v14.5zM16.864 0H6.1v1.11h10.764V0zM4.4 17.85a2.105 2.105 0 1 0 2.148 2.1 2.126 2.126 0 0 0-2.148-2.1zm0 3.1a1 1 0 1 1 1.015-1 1.01 1.01 0 0 1-1.015 1zm14.161-3.1a2.105 2.105 0 1 0 2.148 2.1 2.126 2.126 0 0 0-2.152-2.1zm0 3.1a1 1 0 1 1 1.015-1 1.009 1.009 0 0 1-1.019 1zM1.219 32.43l.971.57 3.69-6.12-.975-.57zm15.86-5.55l3.69 6.12.975-.57-3.689-6.12zm2.9-16.69a3.638 3.638 0 0 0-3.672-3.6H6.653a3.638 3.638 0 0 0-3.672 3.6v5.77h16.993v-5.77zm-1.133 4.66H4.114v-4.66A2.52 2.52 0 0 1 6.653 7.7H16.3a2.519 2.519 0 0 1 2.539 2.49v4.66z"/></symbol><symbol viewBox="0 0 210.414 210.414" id="icon-mouse"><path d="M105.207 0C66.532 0 35.069 31.45 35.069 70.104v70.21c0 38.653 31.463 70.1 70.138 70.1 38.675 0 70.138-31.446 70.138-70.1v-70.21C175.345 31.45 143.881 0 105.207 0zm62.345 140.314c0 34.357-27.968 62.307-62.345 62.307-34.377 0-62.345-27.95-62.345-62.307v-70.21c0-34.357 27.968-62.311 62.345-62.311 34.377 0 62.345 27.953 62.345 62.311v70.21z"/><path d="M105.207 23.379a3.896 3.896 0 0 0-3.897 3.897v35.286a3.896 3.896 0 0 0 3.897 3.897 3.896 3.896 0 0 0 3.897-3.897V27.276a3.897 3.897 0 0 0-3.897-3.897z"/></symbol><symbol viewBox="0 0 95.481 95.481" id="icon-odnoklassniki"><path d="M43.041 67.254c-7.402-.772-14.076-2.595-19.79-7.064-.709-.556-1.441-1.092-2.088-1.713-2.501-2.402-2.753-5.153-.774-7.988 1.693-2.426 4.535-3.075 7.489-1.682.572.27 1.117.607 1.639.969 10.649 7.317 25.278 7.519 35.967.329 1.059-.812 2.191-1.474 3.503-1.812 2.551-.655 4.93.282 6.299 2.514 1.564 2.549 1.544 5.037-.383 7.016-2.956 3.034-6.511 5.229-10.461 6.761-3.735 1.448-7.826 2.177-11.875 2.661.611.665.899.992 1.281 1.376 5.498 5.524 11.02 11.025 16.5 16.566 1.867 1.888 2.257 4.229 1.229 6.425-1.124 2.4-3.64 3.979-6.107 3.81-1.563-.108-2.782-.886-3.865-1.977-4.149-4.175-8.376-8.273-12.441-12.527-1.183-1.237-1.752-1.003-2.796.071-4.174 4.297-8.416 8.528-12.683 12.735-1.916 1.889-4.196 2.229-6.418 1.15-2.362-1.145-3.865-3.556-3.749-5.979.08-1.639.886-2.891 2.011-4.014 5.441-5.433 10.867-10.88 16.295-16.322.359-.362.694-.746 1.217-1.305z"/><path d="M47.55 48.329c-13.205-.045-24.033-10.992-23.956-24.218C23.67 10.739 34.505-.037 47.84 0c13.362.036 24.087 10.967 24.02 24.478-.068 13.199-10.971 23.897-24.31 23.851zm12.001-24.186c-.023-6.567-5.253-11.795-11.807-11.801-6.609-.007-11.886 5.316-11.835 11.943.049 6.542 5.324 11.733 11.896 11.709 6.552-.023 11.768-5.285 11.746-11.851z"/></symbol><symbol viewBox="0 0 512 512" id="icon-pedestrian"><path d="M416.16 259.618a9.986 9.986 0 0 0-2.925-7.06l-89.868-89.868c-1.29-1.29-2.852-2.11-4.495-2.547 1.422-18.379-6.878-39.884-11.253-49.742 11.538-11.722 18.673-27.789 18.673-45.496C326.292 29.117 297.175 0 261.388 0c-35.787 0-64.904 29.117-64.904 64.904 0 16.424 6.145 31.432 16.24 42.876-13.2 10.285-40.752 32.421-63.241 54.909-33.032 33.028-23.252 114.675-22.818 118.137a9.979 9.979 0 0 0 5.753 7.84 9.96 9.96 0 0 0 9.693-.77l29.956-19.971c2.292-1.526 4.431-3.939 4.889-6.655.078-.463 5.708-39.537 30.671-62.15v97.889L148.189 404.93c-19.278 38.556-42.815 81.74-48.344 87.274-4.978 4.978-4.66 10.551-2.567 14.105 1.76 2.994 3.272 5.69 11.472 5.69 9.059 0 26.166-3.296 60.559-13.12a9.95 9.95 0 0 0 6.452-5.758c.479-1.148 46.424-111.094 75.578-153.336 12.898 8.172 27.639 15.653 42.579 19.388 34.159 8.537 52.347 63.696 52.347 100.196 0 41.262 10.856 49.97 19.968 49.97h29.956c5.514 0 9.985-4.515 9.985-10.029 0-20.406-.531-123.269-11.038-144.283-9.717-19.429-55.641-51.756-69.746-61.371a1039.454 1039.454 0 0 1-6.862-44.343c20.56 12.636 52.061 30.278 67.676 30.278 29.614 0 29.956-19.159 29.956-19.973zM261.388 19.971c24.778 0 44.934 20.156 44.934 44.934s-20.156 44.934-44.934 44.934-44.934-20.156-44.934-44.934c0-24.779 20.156-44.934 44.934-44.934zM159.189 480.976c-11.672 3.242-24.222 6.411-34.017 8.532 14.461-24.276 35.153-65.358 40.136-75.329l53.788-98.612a285.093 285.093 0 0 0 15.836 12.846c-27.364 39.703-66.62 130.991-75.743 152.563zm218.083-116.995c5.753 11.503 8.552 77.958 8.893 125.388h-16.231c-1.302-2.496-3.701-11.004-3.701-30 0-42.629-20.357-107.911-66.895-119.549-30.848-7.708-64.252-35.59-71.741-44.536V179.735c0-3.462-2.373-6.675-5.313-8.494-2.945-1.819-6.916-1.98-10.007-.439-37.815 18.908-51.309 67.786-54.59 82.803l-12.442 8.249c-1.156-26.47 1.002-67.654 18.393-85.046 23.694-23.694 54.172-47.724 64.882-55.983a64.452 64.452 0 0 0 32.877 8.982 64.46 64.46 0 0 0 29.695-7.223c5.394 13.396 11.03 33.243 6.3 42.698-10.644 21.292 4.27 109.526 9.092 136.059a10.025 10.025 0 0 0 4.284 6.546c22.311 14.878 60.092 43.272 66.504 56.094zM315.53 223.772c-1.82-18.142-2.589-33.448-1.776-42.453l77.93 77.929c-1.424.219-3.223.371-5.48.371-11.097-.001-46.7-20.202-70.674-35.847z"/></symbol><symbol viewBox="0 0 492.004 492.004" id="icon-right-arrow"><path d="M382.678 226.804L163.73 7.86C158.666 2.792 151.906 0 144.698 0s-13.968 2.792-19.032 7.86l-16.124 16.12c-10.492 10.504-10.492 27.576 0 38.064L293.398 245.9l-184.06 184.06c-5.064 5.068-7.86 11.824-7.86 19.028 0 7.212 2.796 13.968 7.86 19.04l16.124 16.116c5.068 5.068 11.824 7.86 19.032 7.86s13.968-2.792 19.032-7.86L382.678 265c5.076-5.084 7.864-11.872 7.848-19.088.016-7.244-2.772-14.028-7.848-19.108z"/></symbol><symbol viewBox="0 0 28.97 28.969" id="icon-telephone"><path d="M28.98 23.829a2.25 2.25 0 0 0-1.11-1.648l-7.15-4.117a2.24 2.24 0 0 0-2.7.357l-1.41 1.408a1.033 1.033 0 0 1-1.38.078 41.749 41.749 0 0 1-3.25-2.923 41.155 41.155 0 0 1-2.92-3.25 1.028 1.028 0 0 1 .08-1.379l1.4-1.409a2.228 2.228 0 0 0 .36-2.7L6.78 1.093A2.234 2.234 0 0 0 3.26.628L1.14 2.75c-1.49 1.482-1.51 4.192-.07 7.63a33.535 33.535 0 0 0 7.27 10.249 33.628 33.628 0 0 0 10.25 7.268 11.969 11.969 0 0 0 4.49 1.062 4.277 4.277 0 0 0 3.14-1.129l2.12-2.123a2.222 2.222 0 0 0 .64-1.878zm-8.73-4.951l7.16 4.117a1.294 1.294 0 0 1 .39 1.9l-9.5-5.425.38-.386a1.306 1.306 0 0 1 1.57-.207zM5.01.922a1.284 1.284 0 0 1 .96.641l4.12 7.152a1.3 1.3 0 0 1-.21 1.569l-.35.354-5.46-9.473A1.286 1.286 0 0 1 4.84.91a1.231 1.231 0 0 1 .17.011zm20.54 26.247c-1.17 1.177-3.58 1.128-6.6-.136A32.74 32.74 0 0 1 9 19.969a32.617 32.617 0 0 1-7.06-9.948C.67 7 .62 4.593 1.8 3.416l1.58-1.575 5.46 9.487-.37.365a1.968 1.968 0 0 0-.14 2.633 40.83 40.83 0 0 0 2.99 3.325 43.106 43.106 0 0 0 3.32 2.991 1.981 1.981 0 0 0 2.64-.147l.33-.334 9.52 5.431z"/></symbol><symbol viewBox="0 0 98.566 98.566" id="icon-tripadvisor"><path d="M60.401 20.996c2.751.389 5.445 1.08 8.107 1.898a55.476 55.476 0 0 1 13.156 5.998c.287.178.67.291 1.008.291 4.844.02 9.686.013 14.526.017.39 0 .778.041 1.167.063 0 .095.014.135-.002.157-.226.348-.455.691-.682 1.038-1.643 2.52-3.047 5.156-3.876 8.07-.09.313-.109.575.103.882 4.312 6.192 5.688 12.99 3.886 20.318-1.58 6.427-5.264 11.438-10.862 14.986-4.001 2.537-8.421 3.745-13.143 3.771a22.938 22.938 0 0 1-5.896-.757c-4.722-1.225-8.77-3.579-12.106-7.144-.44-.468-.854-.957-1.323-1.486-1.764 2.629-3.5 5.215-5.278 7.869l-5.191-7.758c-.118.062-.152.069-.175.091a.805.805 0 0 0-.103.108c-4.035 4.765-9.111 7.686-15.295 8.663-3.44.545-6.847.349-10.188-.572-4.735-1.301-8.759-3.799-12.01-7.485C3.047 66.41 1.071 62.226.329 57.469c-.849-4.44.185-8.721.443-9.76.748-3.02 2.052-5.793 3.842-8.343.126-.181.17-.501.11-.717-.73-2.677-1.988-5.112-3.461-7.444-.374-.593-.822-1.142-1.236-1.711v-.198c.083.01.165.026.246.026 4.956.002 9.911.004 14.867-.006.216 0 .456-.089.64-.207 3.482-2.234 7.192-4.004 11.09-5.382a60.266 60.266 0 0 1 8.608-2.333 68.96 68.96 0 0 1 8.562-1.124c7.019-.54 12.629.203 16.361.726zm-6.213 32.731c0 10.883 8.83 19.774 19.674 19.732 10.885-.039 19.675-8.68 19.667-19.683-.008-11.339-9.206-19.863-20.089-19.642-10.744.223-19.154 8.883-19.252 19.593zM24.677 34.059c-10.586-.092-19.816 8.743-19.631 19.997.172 10.495 8.822 19.392 19.851 19.297 10.784-.092 19.452-8.898 19.472-19.562a19.626 19.626 0 0 0-19.692-19.732zm.976-5.134c5.98.365 11.233 2.449 15.671 6.485 4.429 4.028 7.024 9.053 7.967 14.962.97-5.839 3.497-10.817 7.843-14.805 4.353-3.992 9.536-6.087 15.418-6.53-6.98-3.103-14.34-4.421-21.916-4.567-8.61-.169-16.985 1.1-24.983 4.455z"/><path d="M73.822 41.311c6.735-.011 12.19 5.415 12.19 12.143 0 6.754-5.362 11.975-11.688 12.216-7.065.271-12.718-5.358-12.716-12.186.006-6.906 5.699-12.287 12.214-12.173zm7.944 12.173c-.003-4.39-3.552-7.958-7.912-7.958-4.41 0-8 3.549-8.018 7.926-.016 4.358 3.592 7.984 7.961 7.996 4.376.017 7.971-3.582 7.969-7.964zM24.417 41.311c6.731-.007 12.194 5.429 12.177 12.156-.019 6.809-5.386 11.916-11.601 12.199-7.093.324-12.816-5.33-12.803-12.195.014-6.955 5.746-12.276 12.227-12.16zm7.935 12.146c-.013-4.417-3.585-7.938-8.044-7.93-4.301.008-7.905 3.638-7.895 7.955.011 4.367 3.611 7.958 7.992 7.97 4.354.01 7.958-3.616 7.947-7.995z"/><path d="M73.828 49.443c2.232-.002 4.062 1.829 4.041 4.048-.022 2.224-1.821 4.026-4.016 4.027-2.26 0-4.077-1.786-4.072-3.999.004-2.296 1.769-4.074 4.047-4.076zm-49.432-.036a4.075 4.075 0 0 1 4.096 4.067c.009 2.24-1.829 4.079-4.084 4.084-2.309.005-4.09-1.779-4.088-4.1 0-2.279 1.777-4.048 4.076-4.051z"/></symbol><symbol viewBox="0 0 19.84 11.22" id="icon-vk"><path d="M9.71 11.07h1.18a1.021 1.021 0 0 0 .54-.23.879.879 0 0 0 .17-.52s-.03-1.56.71-1.79 1.66 1.51 2.65 2.18a1.922 1.922 0 0 0 1.32.39l2.65-.03s1.39-.09.73-1.16a8.641 8.641 0 0 0-1.97-2.23c-1.66-1.52-1.44-1.27.56-3.89 1.22-1.6 1.71-2.57 1.56-2.99a1.16 1.16 0 0 0-1.04-.29l-2.99.02a.7.7 0 0 0-.38.06.92.92 0 0 0-.27.32 16.736 16.736 0 0 1-1.1 2.28c-1.33 2.22-1.86 2.33-2.07 2.2-.51-.32-.38-1.29-.38-1.98 0-2.14.33-3.04-.65-3.27A5.025 5.025 0 0 0 9.54 0a6.678 6.678 0 0 0-2.48.25c-.34.16-.6.53-.44.55a1.369 1.369 0 0 1 .88.43 2.772 2.772 0 0 1 .3 1.33s.17 2.52-.41 2.84c-.4.22-.96-.22-2.14-2.23A18.41 18.41 0 0 1 4.18 1a.841.841 0 0 0-.24-.33 1.186 1.186 0 0 0-.46-.18L.65.51A1.007 1.007 0 0 0 .06.7a.6.6 0 0 0-.01.5s2.22 5.1 4.74 7.67a6.894 6.894 0 0 0 4.92 2.2z"/></symbol><symbol viewBox="0 0 21.97 16" id="icon-youtube"><path d="M11.53 16c-2.5 0-5.23-.08-8.1-.24a3.453 3.453 0 0 1-3.2-3.23 44.344 44.344 0 0 1 0-9.07A3.461 3.461 0 0 1 3.43.23a119.5 119.5 0 0 1 15.14 0 3.437 3.437 0 0 1 3.2 3.23 44.327 44.327 0 0 1 0 9.07 3.453 3.453 0 0 1-3.2 3.23c-2.17.16-4.54.24-7.04.24zM10.94.85c-2.49 0-5 .08-7.46.23a2.625 2.625 0 0 0-2.41 2.47 44.019 44.019 0 0 0 0 8.89 2.591 2.591 0 0 0 2.41 2.46c2.85.16 5.56.24 8.05.24s4.83-.08 6.98-.24a2.591 2.591 0 0 0 2.41-2.46 42.589 42.589 0 0 0 0-8.89 2.607 2.607 0 0 0-2.4-2.47C15.99.93 13.44.85 10.94.85zm-2.09 4.1v5.9l5.57-2.93z"/></symbol></svg>