<svg xmlns="http://www.w3.org/2000/svg" width="89" height="61"><path data-name="Фигура 1" d="M88.98 19.61c0-.26-.01-.53-.03-.79a1.785 1.785 0 0 1-.02-.23c-.02-.24-.04-.48-.07-.73-.01-.11-.03-.21-.05-.32q-.03-.315-.09-.63c-.02-.15-.06-.31-.08-.46-.04-.16-.06-.32-.1-.48-.05-.22-.1-.44-.15-.65-.03-.1-.05-.2-.08-.29-.07-.29-.16-.58-.25-.86a.309.309 0 0 1-.02-.08 20.2 20.2 0 0 0-1.94-4.24 19.927 19.927 0 0 0-2.839-3.69l-.059-.06q-.315-.33-.643-.63c-.074-.07-.15-.13-.225-.2-.166-.15-.331-.3-.5-.44-.125-.11-.254-.21-.382-.31s-.246-.21-.371-.3c-.169-.13-.341-.25-.512-.38-.09-.06-.178-.13-.268-.19-.2-.14-.407-.27-.613-.41l-.2-.12c-.224-.14-.451-.28-.679-.41l-.158-.09c-.235-.13-.472-.25-.711-.38a1.132 1.132 0 0 1-.154-.08l-.713-.33a1.4 1.4 0 0 0-.179-.08c-.228-.1-.457-.2-.687-.29l-.231-.09c-.211-.08-.424-.16-.637-.23-.1-.04-.2-.07-.3-.11-.189-.06-.378-.12-.567-.17l-.393-.12-.485-.12-.488-.12a5.658 5.658 0 0 0-.4-.08L72.125.3a3.487 3.487 0 0 1-.32-.05c-.222-.03-.445-.07-.669-.09l-.248-.03c-.246-.03-.493-.05-.74-.07a1.314 1.314 0 0 0-.2-.01c-.262-.02-.524-.04-.788-.04h-.173C68.718 0 68.449 0 68.18 0a1.135 1.135 0 0 1-.184.01c-.263.01-.526.02-.79.04a1.847 1.847 0 0 0-.234.02c-.244.02-.488.04-.731.07-.11.01-.22.03-.329.04l-.63.09-.469.09-.483.09c-.219.05-.437.1-.655.16-.1.02-.2.04-.293.07-.29.07-.579.16-.866.25-.027.01-.053.01-.079.02a20.464 20.464 0 0 0-5.6 2.78 20.126 20.126 0 0 0-5.7 26.87 20.45 20.45 0 0 0 22.9 9.12l-19.63 19.49 1.8 1.79L81.49 35.9q.677-.555 1.3-1.14l.062-.06c.214-.21.425-.42.629-.64.07-.07.137-.15.206-.23.15-.16.3-.32.439-.49.11-.12.21-.25.32-.38s.2-.24.3-.37c.13-.16.25-.34.38-.51.06-.09.13-.17.19-.26.14-.2.27-.41.41-.61a1.274 1.274 0 0 1 .13-.19c.14-.23.27-.45.4-.68.03-.05.06-.1.09-.16.14-.23.26-.46.39-.7a1.093 1.093 0 0 1 .08-.15c.11-.24.23-.47.34-.71a1.417 1.417 0 0 1 .08-.18c.1-.22.19-.45.28-.68a2.288 2.288 0 0 0 .1-.23c.08-.21.16-.42.23-.63.04-.1.07-.2.11-.3.06-.19.11-.38.17-.57l.12-.39.12-.48c.04-.16.09-.32.12-.48l.09-.4c.04-.19.08-.38.11-.58.02-.1.03-.21.05-.31.04-.23.07-.45.1-.67l.03-.24c.02-.25.05-.49.07-.74a1.21 1.21 0 0 1 .01-.19c.02-.27.03-.53.04-.79v-.17c.01-.27.01-.53 0-.8a1.087 1.087 0 0 0-.01-.18m-2.54.93v.15c0 .23-.02.46-.03.69a.97.97 0 0 0-.01.17c-.02.22-.04.43-.07.64a1.5 1.5 0 0 1-.02.22c-.02.19-.05.39-.08.58-.02.09-.03.19-.05.28-.03.17-.06.33-.1.5-.02.12-.04.24-.07.35-.03.14-.07.28-.11.42s-.07.29-.11.43c-.03.11-.06.22-.1.34l-.15.49c-.03.09-.06.18-.09.26-.07.19-.13.37-.21.56-.02.06-.05.13-.08.2-.08.2-.16.4-.25.59-.02.06-.05.11-.07.16-.1.21-.2.41-.3.62-.02.04-.05.09-.07.13-.11.21-.22.42-.33.62a1 1 0 0 0-.08.14c-.119.2-.236.39-.359.59-.036.05-.074.11-.112.17-.116.18-.234.35-.357.53-.056.08-.114.15-.171.23-.108.15-.217.3-.331.45-.085.11-.174.21-.262.32l-.052.06-.011-.01-2.6 2.58c-.283.23-.571.45-.87.66a17.893 17.893 0 0 1-24.855-4.2c-.27-.38-.518-.76-.755-1.15s-.463-.8-.672-1.22a17.618 17.618 0 0 1 5.657-22.3 18.825 18.825 0 0 1 2.387-1.42 18.8 18.8 0 0 1 2.514-1.01c.024-.01.048-.01.072-.02.251-.08.5-.15.756-.22l.258-.06c.19-.05.38-.1.571-.14.141-.03.283-.05.425-.08s.272-.05.408-.07c.184-.03.368-.06.553-.08a2.79 2.79 0 0 1 .285-.04q.321-.045.642-.06c.068-.01.136-.01.2-.02q.346-.03.693-.03c.053 0 .106-.01.159-.01h.858c.231.01.461.02.691.04.058 0 .115.01.171.01l.65.06.215.03c.2.02.392.05.587.08.093.01.185.03.278.04.171.03.341.07.511.1.116.03.233.05.349.07.143.04.285.07.428.11s.284.07.424.11c.115.03.229.07.344.1l.5.15.267.09c.186.07.372.13.556.2l.2.09c.2.08.4.16.6.25a1.07 1.07 0 0 1 .156.07c.21.09.419.19.625.29.045.02.09.05.135.07q.314.165.621.33a1.05 1.05 0 0 0 .139.08c.2.12.4.23.594.36a1.541 1.541 0 0 1 .171.11c.18.11.36.23.536.35.079.06.156.11.234.17q.227.165.449.33c.11.08.216.17.324.26s.225.18.335.27c.148.13.293.26.438.39.065.06.133.11.2.17.191.18.377.37.561.55l.054.06a16.913 16.913 0 0 1 1.731 2.07c.27.38.518.76.755 1.16s.462.79.672 1.21a17.624 17.624 0 0 1 1.02 2.49.637.637 0 0 0 .02.07c.08.25.15.5.22.76a2.335 2.335 0 0 0 .07.25c.04.19.09.38.13.57.03.14.06.28.08.42s.06.27.08.41c.03.18.06.36.08.54.01.1.03.19.04.29l.06.63c.01.07.01.14.02.21l.03.68v.16c.01.24.01.47 0 .7m-52.618.56A11.36 11.36 0 0 0 27.874 0v2.53a8.85 8.85 0 1 1 0 17.7v2.52h.116a17.7 17.7 0 1 1-17.941 17.58l-2.547-.01A20.373 20.373 0 1 0 33.82 21.1M9.907 15.03V.14H7.643v3.73L.003.22v14.81h2.264V3.79l5.376 2.57v8.67h2.264zM17.688.14a4.915 4.915 0 1 0 4.951 4.92A4.944 4.944 0 0 0 17.688.14m0 7.59a2.67 2.67 0 1 1 2.688-2.67 2.684 2.684 0 0 1-2.688 2.67m1.273 6.18a1.273 1.273 0 1 1-1.273-1.27 1.27 1.27 0 0 1 1.273 1.27M.003 22.6h22.636v-2.23H.005v2.23zm16.463 13.42a1.3 1.3 0 0 1 .969.32 1.127 1.127 0 0 1 .32.83 1.1 1.1 0 0 1-.329.81 1.208 1.208 0 0 1-.88.34h-.869v-3.5h1.678v.6h-1.039v.6h.15zm.055 1.7a.563.563 0 0 0 .6-.55.54.54 0 0 0-.6-.56h-.205v1.11h.205zm6.036-2.9h.719l-1.678 3.5h-.719l.639-1.32-1.039-2.18h.721l.7 1.43.659-1.43zm3.336 0h2.078v.6h-.719v2.9h-.64v-2.9H25.9v-.6zm5.877 0v2.2l1.319-2.2h.519v3.5h-.639v-2.2l-1.319 2.2h-.519v-3.5h.639zm7.364 3.5h-.8l-.759-1.36-.2.29v1.07h-.639v-3.5h.639v1.39l.919-1.39h.759l-1.079 1.56 1.16 1.94zM16.718 40a1.747 1.747 0 0 1 1.274.52 1.775 1.775 0 0 1 0 2.52 1.756 1.756 0 0 1-1.274.53 1.735 1.735 0 0 1-1.269-.53 1.763 1.763 0 0 1 0-2.52 1.726 1.726 0 0 1 1.269-.52m0 2.97a1.1 1.1 0 0 0 .819-.34 1.194 1.194 0 0 0 .34-.85 1.154 1.154 0 0 0-.34-.84 1.133 1.133 0 0 0-1.638 0 1.158 1.158 0 0 0-.34.84 1.2 1.2 0 0 0 .34.85 1.1 1.1 0 0 0 .819.34m4.123-2.93h2.078v.59H22.2v2.9h-.64v-2.9h-.719v-.59zm7.259.59h-1.2v1.05h.879v.6H26.9v.65h1.2v.6h-1.839v-3.49H28.1v.59zm5.51-.59v3.49h-.639v-2.9h-.68l-.27 1.85a1 1 0 0 1-.923 1.09 1.036 1.036 0 0 1-.525-.16l.22-.56c.314.2.554.05.619-.39l.36-2.42h1.838zm3.917 1.19a1.34 1.34 0 0 1 .969.32 1.142 1.142 0 0 1 .319.83 1.1 1.1 0 0 1-.329.81 1.2 1.2 0 0 1-.879.34h-.87v-3.49h.64v1.19h.15zm.055 1.7a.563.563 0 0 0 .6-.55.545.545 0 0 0-.6-.56h-.205v1.11h.205z" fill="#fff" fill-rule="evenodd"/></svg>