<svg xmlns="http://www.w3.org/2000/svg" width="115" height="105"><path data-name="Forma 1 копия 3" d="M114.98 25.071c-.01-.334-.02-.669-.05-1 0-.1-.02-.2-.02-.3l-.09-.931-.06-.416c-.04-.267-.07-.535-.12-.8-.03-.2-.07-.4-.11-.6l-.12-.613c-.06-.277-.13-.553-.2-.829-.04-.124-.06-.25-.1-.374-.1-.367-.21-.733-.32-1.1l-.03-.1a26.147 26.147 0 0 0-6.18-10.142c-.02-.026-.05-.049-.07-.075a24 24 0 0 0-.83-.8c-.1-.088-.2-.172-.29-.259-.22-.192-.43-.382-.65-.566-.16-.136-.33-.265-.49-.4s-.32-.256-.48-.379c-.22-.165-.44-.323-.67-.481-.11-.082-.23-.166-.34-.246-.26-.179-.53-.35-.79-.519-.09-.054-.17-.11-.26-.162-.29-.179-.58-.349-.87-.517l-.21-.116a23.6 23.6 0 0 0-.92-.485 2.33 2.33 0 0 0-.2-.1c-.3-.151-.61-.293-.92-.431a4.207 4.207 0 0 0-.23-.105c-.29-.128-.59-.248-.89-.365-.1-.039-.19-.08-.29-.118-.28-.1-.55-.2-.83-.294-.13-.045-.26-.091-.389-.134-.243-.079-.488-.151-.732-.224-.169-.049-.338-.1-.507-.147-.209-.057-.418-.108-.628-.159l-.629-.152c-.173-.038-.346-.071-.519-.105-.25-.051-.5-.1-.751-.144-.138-.024-.276-.043-.413-.065a28.05 28.05 0 0 0-.864-.123c-.107-.013-.214-.023-.321-.035a25.39 25.39 0 0 0-.957-.092c-.085-.006-.169-.009-.255-.014a26.57 26.57 0 0 0-1.018-.05h-.225a22.623 22.623 0 0 0-1.042 0c-.079 0-.159.007-.238.007-.34.011-.679.025-1.02.048-.1.007-.2.017-.3.025-.314.025-.63.052-.944.088-.142.016-.284.039-.426.057a22.71 22.71 0 0 0-.813.116c-.2.033-.4.073-.606.111s-.417.075-.625.12c-.283.06-.564.128-.845.2-.127.031-.253.059-.379.092-.375.1-.748.206-1.12.32l-.1.03a26.474 26.474 0 0 0-7.238 3.55 25.572 25.572 0 0 0-7.362 34.359 26.546 26.546 0 0 0 29.594 11.668L70.31 75.711 72.637 78l32.673-32.1c.58-.465 1.14-.951 1.67-1.457.03-.026.05-.053.08-.078.28-.266.55-.536.81-.813.09-.095.18-.194.27-.29.19-.209.39-.418.57-.633.14-.159.27-.323.41-.486s.26-.31.38-.47c.17-.214.33-.433.49-.651.09-.114.17-.225.25-.339.19-.255.36-.516.53-.778.06-.083.11-.164.17-.248.18-.285.35-.572.52-.864l.12-.2c.17-.3.34-.6.5-.9a1.779 1.779 0 0 1 .1-.193c.15-.3.3-.6.44-.906.03-.076.07-.151.1-.227.13-.287.26-.58.37-.872.04-.1.09-.195.12-.293.11-.267.21-.537.3-.806.05-.129.1-.258.14-.387.08-.239.15-.478.23-.719l.15-.5c.06-.2.11-.41.16-.616s.11-.412.15-.62c.04-.168.08-.338.11-.507l.15-.741.06-.4c.05-.283.09-.567.13-.851.01-.1.02-.21.04-.314l.09-.942a2.057 2.057 0 0 0 .01-.248c.03-.334.04-.668.05-1a1.587 1.587 0 0 0 .01-.218c0-.342.01-.684 0-1.027 0-.077-.01-.153-.01-.232m-3.28 1.2a1.25 1.25 0 0 1-.01.194c0 .292-.02.585-.04.876 0 .073-.01.146-.01.22-.02.274-.05.548-.08.822l-.03.276-.12.743c-.01.118-.03.236-.05.354-.04.216-.09.431-.13.647l-.09.446c-.05.18-.09.36-.14.54s-.09.361-.14.541c-.04.145-.09.289-.13.435-.07.21-.13.422-.2.63l-.12.337c-.09.237-.17.474-.26.708-.04.086-.07.17-.11.255-.1.257-.21.512-.32.765-.03.065-.07.131-.1.2-.12.267-.25.531-.38.793l-.09.17c-.14.266-.28.53-.43.79-.04.059-.07.117-.11.175-.15.254-.3.506-.46.754a2.347 2.347 0 0 1-.14.217c-.15.23-.3.457-.46.681-.07.1-.15.2-.22.3-.14.191-.28.382-.43.568-.11.139-.23.276-.34.413a.474.474 0 0 1-.07.081l-.01-.014-3.36 3.3c-.37.287-.74.569-1.13.84a22.989 22.989 0 0 1-3.08 1.811 23.294 23.294 0 0 1-29.031-7.178c-.349-.484-.669-.98-.975-1.48s-.6-1.017-.869-1.551A22.39 22.39 0 0 1 75.344 7.4a23.319 23.319 0 0 1 3.085-1.813 23.552 23.552 0 0 1 3.248-1.293c.031-.011.063-.018.093-.028q.488-.151.977-.28c.11-.029.223-.053.334-.081a19.589 19.589 0 0 1 1.286-.277c.184-.033.351-.067.527-.1.238-.04.476-.07.715-.1.123-.017.246-.036.369-.048.276-.033.553-.056.83-.079.087-.006.175-.015.262-.022.3-.019.6-.032.895-.041.068 0 .137-.006.206-.007.3-.006.609 0 .913 0h.2c.3.008.6.024.893.043l.221.013c.281.021.561.05.84.08.093.01.186.018.278.03.253.032.506.07.758.109.12.018.239.035.36.056.22.039.439.082.659.127.15.03.3.059.451.092.185.042.369.088.553.134s.367.089.548.139c.149.041.3.085.444.129.214.064.429.126.641.2.115.037.229.078.344.118.24.082.481.165.719.255.092.034.172.07.262.1.26.1.52.207.78.318.06.03.13.062.2.092.27.122.54.246.8.377l.18.089c.27.137.54.276.8.424.06.032.12.068.18.1.26.147.52.3.77.451a45.28 45.28 0 0 1 .91.596c.1.071.2.145.3.217.2.137.39.276.58.421.15.107.28.22.42.331l.44.346c.19.161.37.328.56.5.09.075.17.149.26.226.24.227.48.462.72.7.02.023.05.045.07.068a23.244 23.244 0 0 1 2.24 2.651c.35.484.67.98.97 1.48s.6 1.017.87 1.551a22.18 22.18 0 0 1 1.32 3.191l.03.089c.1.32.19.64.28.962.03.108.06.218.08.328q.105.361.18.725c.04.178.07.357.11.536s.07.347.1.522c.03.231.07.466.1.7.01.122.03.244.05.365.03.271.05.542.08.813a2.291 2.291 0 0 0 .02.26c.02.292.03.583.04.875 0 .069.01.138.01.206.01.3 0 .6 0 .895m-68 .718a14.486 14.486 0 0 0 7.126-12.437A14.679 14.679 0 0 0 36.02 0v3.232a11.316 11.316 0 1 1 0 22.628v3.232h.149a22.632 22.632 0 1 1-23.182 22.481l-3.291-.021A26.328 26.328 0 1 0 43.7 26.986m-30.9-7.769V.181H9.875v4.766L.003.286v18.93h2.925V4.841l6.947 3.292v11.084H12.8zM22.854.181a6.286 6.286 0 1 0 6.4 6.285 6.349 6.349 0 0 0-6.4-6.285m0 9.7a3.412 3.412 0 1 1 3.473-3.412 3.447 3.447 0 0 1-3.473 3.412m1.645 7.9a1.645 1.645 0 1 1-1.645-1.617 1.631 1.631 0 0 1 1.645 1.617M.006 28.9h29.25v-2.858H.006V28.9zm28.166 67.494l-4.021 2.974 1.536 4.81a.639.639 0 0 1-.225.707.615.615 0 0 1-.73 0l-4.021-2.973-4.02 2.972a.609.609 0 0 1-.73 0 .637.637 0 0 1-.225-.706l1.535-4.811-4.02-2.973a.638.638 0 0 1-.226-.706.622.622 0 0 1 .591-.437h4.969l1.536-4.81a.617.617 0 0 1 1.181 0l1.536 4.81h4.969a.622.622 0 0 1 .591.437.639.639 0 0 1-.226.701zm24.857 0l-4.02 2.974 1.536 4.81a.641.641 0 0 1-.226.707.615.615 0 0 1-.73 0l-4.02-2.973-4.02 2.972a.611.611 0 0 1-.731 0 .639.639 0 0 1-.225-.706l1.535-4.811-4.02-2.973a.638.638 0 0 1-.226-.706.623.623 0 0 1 .591-.437h4.969l1.536-4.81a.617.617 0 0 1 1.181 0l1.536 4.81h4.97a.622.622 0 0 1 .59.437.639.639 0 0 1-.226.701zm24.857 0l-4.02 2.974 1.536 4.81a.641.641 0 0 1-.226.707.615.615 0 0 1-.73 0l-4.02-2.973-4.02 2.972a.611.611 0 0 1-.731 0 .639.639 0 0 1-.225-.706l1.535-4.811-4.02-2.973a.638.638 0 0 1-.226-.706.623.623 0 0 1 .591-.437h4.97l1.535-4.81a.617.617 0 0 1 1.181 0l1.536 4.81h4.97a.624.624 0 0 1 .591.437.64.64 0 0 1-.227.701zm24.854 0l-4.02 2.974 1.54 4.81a.643.643 0 0 1-.23.707.6.6 0 0 1-.36.12.628.628 0 0 1-.37-.12l-4.017-2.973-4.02 2.972a.611.611 0 0 1-.731 0 .639.639 0 0 1-.225-.706l1.535-4.811-4.02-2.973a.639.639 0 0 1-.226-.706.624.624 0 0 1 .591-.437h4.97l1.535-4.81a.618.618 0 0 1 1.182 0l1.536 4.81h4.97a.617.617 0 0 1 .59.437.641.641 0 0 1-.23.701z" fill="#fff" fill-rule="evenodd"/></svg>