<svg xmlns="http://www.w3.org/2000/svg" width="54" height="37"><path data-name="Фигура 1" d="M53.991 11.89c0-.16-.012-.32-.023-.47 0-.05-.008-.1-.012-.14-.012-.15-.025-.3-.042-.45a12.4 12.4 0 0 0-.027-.19c-.017-.13-.034-.26-.055-.38-.016-.1-.036-.19-.053-.29s-.036-.19-.057-.29a13.82 13.82 0 0 0-.095-.39c-.015-.06-.028-.12-.044-.18-.047-.17-.1-.34-.153-.52a.465.465 0 0 1-.015-.05 12.6 12.6 0 0 0-2.9-4.81l-.036-.03a9.28 9.28 0 0 0-.39-.38 1.632 1.632 0 0 1-.136-.13c-.1-.09-.2-.18-.305-.26-.076-.07-.154-.13-.231-.19l-.225-.18c-.1-.08-.207-.15-.311-.23l-.163-.12c-.122-.08-.247-.16-.372-.24-.039-.03-.078-.05-.118-.08l-.412-.24-.1-.06a7.775 7.775 0 0 0-.431-.23c-.032-.02-.062-.03-.094-.05a7.62 7.62 0 0 0-.432-.2.554.554 0 0 0-.109-.05 6.751 6.751 0 0 0-.417-.17l-.14-.06a5.77 5.77 0 0 0-.386-.14l-.184-.06c-.115-.04-.23-.08-.344-.11-.08-.02-.159-.05-.238-.07-.1-.03-.2-.05-.295-.08s-.2-.04-.3-.07c-.081-.02-.162-.03-.243-.05-.117-.02-.235-.05-.353-.07l-.194-.03c-.135-.02-.27-.04-.406-.05A.772.772 0 0 0 43 .08c-.15-.02-.3-.03-.45-.05h-.119L41.952 0h-.594c-.037 0-.075.01-.112.01-.16 0-.319.01-.479.02-.047 0-.1.01-.142.01-.148.01-.3.03-.444.04l-.2.03c-.128.02-.255.03-.382.05l-.285.06c-.1.02-.2.03-.293.05a6.15 6.15 0 0 0-.4.1c-.06.01-.119.03-.178.04l-.526.15c-.016.01-.032.01-.048.02a12.272 12.272 0 0 0 7.041 23.51L33 35.91 34.093 37l15.34-15.23q.41-.33.787-.69l.037-.03c.13-.13.258-.26.382-.39.042-.05.083-.09.125-.14.091-.1.182-.2.269-.3.065-.07.127-.15.19-.23s.122-.15.181-.22c.079-.1.154-.21.23-.31.039-.05.079-.11.117-.16.086-.12.168-.25.249-.37l.077-.12c.086-.13.167-.27.247-.41l.056-.09c.08-.14.157-.29.232-.43l.048-.09c.072-.14.14-.29.206-.43.017-.04.033-.07.05-.11.061-.14.118-.27.174-.41.019-.05.039-.1.057-.14.049-.13.1-.26.14-.38.021-.07.044-.13.064-.19.038-.11.073-.23.107-.34l.071-.24c.023-.08.051-.19.076-.29s.05-.19.072-.29l.051-.24.069-.35.03-.2c.022-.13.043-.26.06-.4l.016-.15c.017-.15.032-.29.044-.44 0-.04 0-.08.007-.12q.017-.24.024-.48v-.1V12v-.11m-1.542.57v.09c0 .14-.011.28-.02.42 0 .03 0 .07-.007.1-.01.13-.024.26-.038.39 0 .05-.009.09-.015.13a7.69 7.69 0 0 1-.052.35c-.008.06-.016.12-.026.17-.018.1-.039.21-.06.31l-.045.21c-.02.09-.041.17-.063.26s-.043.17-.067.25l-.061.21c-.031.1-.061.2-.094.3-.018.05-.037.11-.056.16-.04.11-.08.22-.123.33a.734.734 0 0 1-.049.12 3.724 3.724 0 0 1-.197.46c-.058.13-.117.25-.18.38a.583.583 0 0 0-.042.08c-.066.12-.133.25-.2.37l-.049.09c-.07.12-.142.24-.216.35-.022.04-.045.07-.068.11-.07.11-.142.21-.217.32-.033.05-.069.09-.1.14-.066.09-.132.18-.2.27-.052.07-.106.13-.159.2a.159.159 0 0 0-.032.04l-.006-.01-1.578 1.57c-.172.13-.346.27-.528.39a10.437 10.437 0 0 1-1.449.86 10.861 10.861 0 0 1-13.631-3.4c-.164-.23-.314-.47-.458-.7s-.281-.49-.408-.74a10.689 10.689 0 0 1 3.432-13.53 11.257 11.257 0 0 1 1.448-.86 11.173 11.173 0 0 1 1.525-.61.068.068 0 0 1 .043-.01c.153-.05.306-.1.459-.14a.9.9 0 0 0 .157-.04c.115-.02.23-.05.346-.08.085-.02.172-.03.258-.05s.165-.03.247-.04c.112-.02.224-.04.336-.05a1.02 1.02 0 0 1 .173-.02c.13-.02.26-.03.39-.04.041 0 .082-.01.123-.01.14-.01.28-.02.42-.02h.1a3.071 3.071 0 0 1 .429 0h.091c.14 0 .28.01.42.02h.1c.132.01.264.03.395.04.043.01.087.01.13.02.119.01.238.03.356.05.057.01.113.01.169.02l.31.06c.07.02.141.03.212.05l.259.06a2.388 2.388 0 0 1 .257.07l.209.06.3.09.161.06.338.12a.636.636 0 0 1 .123.05l.364.15c.032.01.063.03.1.04l.379.18a.3.3 0 0 0 .082.04l.377.21c.029.01.056.03.084.04.121.07.242.14.36.22a.558.558 0 0 1 .1.07l.326.21c.047.03.094.07.142.1.091.07.182.13.272.2.066.05.131.11.2.16s.136.11.2.16l.267.24a1.192 1.192 0 0 1 .119.11c.116.1.229.22.34.33l.033.03a11.238 11.238 0 0 1 1.05 1.26c.164.23.315.46.458.7s.282.48.408.74a10.536 10.536 0 0 1 .619 1.51 11.387 11.387 0 0 1 .147.5c.014.05.025.1.038.15.029.12.058.23.083.35.018.08.034.17.05.25s.032.17.046.25q.027.165.048.33l.024.17c.015.13.027.26.037.39 0 .04.008.08.011.12.009.14.015.28.019.42v.52m-31.928.34A6.891 6.891 0 0 0 16.906 0v1.53a5.37 5.37 0 1 1 0 10.74v1.53h.07A10.736 10.736 0 1 1 6.09 24.46l-1.545-.01A12.362 12.362 0 1 0 20.513 12.8M6.004 9.12V.09H4.631v2.26L0 .14v8.98h1.374V2.3l3.262 1.56v5.26h1.373zM10.725.09a2.98 2.98 0 1 0 3 2.98 2.991 2.991 0 0 0-3-2.98m0 4.6a1.62 1.62 0 1 1 1.631-1.62 1.63 1.63 0 0 1-1.631 1.62m.773 3.74a.773.773 0 1 1-.773-.76.768.768 0 0 1 .773.76m-11.5 5.28h13.735v-1.36H0v1.36z" fill="#fff" fill-rule="evenodd"/></svg>