<?xml version="1.0" encoding="utf-8"?>
<!-- Generator: Adobe Illustrator 16.0.0, SVG Export Plug-In . SVG Version: 6.00 Build 0)  -->
<!DOCTYPE svg PUBLIC "-//W3C//DTD SVG 1.1//EN" "http://www.w3.org/Graphics/SVG/1.1/DTD/svg11.dtd">
<svg version="1.1" id="Слой_1" xmlns="http://www.w3.org/2000/svg" xmlns:xlink="http://www.w3.org/1999/xlink" x="0px" y="0px"
	 width="794.301px" height="355.477px" viewBox="0 0 794.301 355.477" enable-background="new 0 0 794.301 355.477"
	 xml:space="preserve">
<rect x="-114.605" y="-262.258" display="none" fill="#161616" width="1000" height="1000"/>
<g>
	<g>
		<g>
			<path fill="none" stroke="#FFFFFF" stroke-width="2" stroke-linecap="round" stroke-linejoin="round" stroke-miterlimit="10" d="
				M142.846,37.176c0,0,0.85,2.993-2.028,3.574c-3.796,0.767-5.916-8.901,1.825-8.196c3.102,0.282,5.587,5.786,3.614,9.509
				c-1.974,3.73-6.436,4.193-8.589,3.137c-6.968-3.436-8.217-15.874,1.546-18.651c21.537-6.127,37.46,18.3,36.137,39.166"/>
			<path fill="none" stroke="#FFFFFF" stroke-width="2" stroke-linecap="round" stroke-linejoin="round" stroke-miterlimit="10" d="
				M167.527,26.218c5.357,2.36-1.719,8.821-4.711,2.264c-1.03-2.261,1.054-8.433,7.296-7c6.244,1.435,5.554,8.919,5.427,10.533
				c-0.128,1.618-2.963,8.881-12.832,9.436c-9.871,0.561-12.764-2.75-12.764-2.75s2.05,3.763,0.646,5.898
				c3.318,0.739,14.288,0.442,17.351,9.509c3.058,9.064,0.563,12.234,0.563,12.234s-4.98-18.645-15.792-16.384
				c-10.81,2.263-8.581,10.153-8.581,10.153c1.417,5.547,5.711,10.448,11.791,7.668c6.077-2.779,2.279-14.158-3.269-12.712
				c-5.627,1.475-3.381,5.536-3.381,5.536"/>
		</g>
		<g>
			<path fill="none" stroke="#FFFFFF" stroke-width="2" stroke-linecap="round" stroke-linejoin="round" stroke-miterlimit="10" d="
				M212.613,37.18c0,0-0.852,2.992,2.028,3.573c3.798,0.767,5.916-8.902-1.824-8.198c-3.101,0.282-5.586,5.779-3.608,9.513
				c1.968,3.726,6.432,4.189,8.585,3.124c6.964-3.426,8.218-15.864-1.543-18.641c-21.542-6.13-37.466,18.297-36.146,39.166"/>
			<path fill="none" stroke="#FFFFFF" stroke-width="2" stroke-linecap="round" stroke-linejoin="round" stroke-miterlimit="10" d="
				M187.934,26.22c-5.361,2.357,1.716,8.819,4.706,2.26c1.034-2.26-1.053-8.431-7.295-6.996c-6.238,1.432-5.553,8.917-5.422,10.531
				c0.123,1.616,2.964,8.883,12.83,9.438c9.866,0.554,12.768-2.758,12.768-2.758s-2.057,3.767-0.649,5.906
				c-3.32,0.737-14.287,0.438-17.349,9.505c-3.064,9.071-0.564,12.238-0.564,12.238s4.981-18.646,15.789-16.384
				c10.812,2.26,8.581,10.148,8.581,10.148c-1.413,5.549-5.708,10.45-11.789,7.669c-6.08-2.777-2.28-14.157,3.269-12.71
				c5.623,1.474,3.381,5.53,3.381,5.53"/>
		</g>
	</g>
	<g>
		<g>
			<path fill="none" stroke="#FFFFFF" stroke-width="2" stroke-linecap="round" stroke-linejoin="round" stroke-miterlimit="10" d="
				M66.889,84.531c0,0,2.446,1.921,0.46,4.083c-2.62,2.851-10.018-3.725-3.341-7.704c2.676-1.596,7.922,1.396,8.514,5.567
				c0.596,4.179-2.743,7.175-5.105,7.586c-7.657,1.316-15.979-8.013-9.713-15.998c13.822-17.615,41.063-7.213,52.257,10.445"/>
			<path fill="none" stroke="#FFFFFF" stroke-width="2" stroke-linecap="round" stroke-linejoin="round" stroke-miterlimit="10" d="
				M80.416,61.158c5.721-1.239,3.794,8.146-2.481,4.601c-2.162-1.223-4.104-7.442,1.789-9.952c5.895-2.51,9.736,3.951,10.581,5.331
				c0.847,1.384,2.823,8.927-4.835,15.175c-7.656,6.255-11.943,5.277-11.943,5.277s3.871,1.839,3.99,4.393
				c3.119-1.352,11.818-8.041,19.627-2.505c7.801,5.536,7.646,9.566,7.646,9.566s-14.988-12.156-22.406-3.974
				c-7.416,8.186-0.974,13.26-0.974,13.26c4.406,3.652,10.761,5.095,14.046-0.728c3.282-5.82-6.479-12.794-10.116-8.362
				c-3.687,4.5,0.519,6.466,0.519,6.466"/>
		</g>
		<g>
			<path fill="none" stroke="#FFFFFF" stroke-width="2" stroke-linecap="round" stroke-linejoin="round" stroke-miterlimit="10" d="
				M123.333,43.525c0,0,1.069,2.921,3.741,1.698c3.523-1.611-0.446-10.679-6.295-5.56c-2.342,2.051-1.122,7.959,2.673,9.816
				c3.781,1.857,7.665-0.392,8.781-2.519c3.62-6.865-2.677-17.666-12.206-14.174c-21.03,7.703-19.555,36.823-6.221,52.932"/>
			<path fill="none" stroke="#FFFFFF" stroke-width="2" stroke-linecap="round" stroke-linejoin="round" stroke-miterlimit="10" d="
				M96.926,49.165c-2.952,5.059,6.572,6.126,5.135-0.938c-0.491-2.436-5.807-6.202-10.014-1.372
				c-4.205,4.824,0.75,10.479,1.804,11.707c1.05,1.235,7.619,5.444,15.927,0.095c8.308-5.352,8.709-9.735,8.709-9.735
				s0.55,4.256,2.945,5.16c-2.253,2.548-11.302,8.75-8.447,17.887c2.852,9.14,6.736,10.232,6.736,10.232s-6.93-18.014,3.143-22.535
				c10.076-4.526,12.908,3.167,12.908,3.167c2.118,5.318,1.524,11.81-5.029,13.134c-6.552,1.327-10.166-10.114-4.826-12.203
				c5.414-2.114,5.985,2.487,5.985,2.487"/>
		</g>
	</g>
	<g>
		<g>
			<path fill="none" stroke="#FFFFFF" stroke-width="2" stroke-linecap="round" stroke-linejoin="round" stroke-miterlimit="10" d="
				M33.274,167.489c0,0,3.107,0.115,2.771,3.032c-0.443,3.848-10.293,2.875-7.23-4.268c1.227-2.863,7.23-3.526,10.16-0.5
				c2.938,3.03,1.998,7.417,0.328,9.138c-5.42,5.566-17.637,2.91-17.261-7.233c0.828-22.376,28.98-29.973,48.416-22.267"/>
			<path fill="none" stroke="#FFFFFF" stroke-width="2" stroke-linecap="round" stroke-linejoin="round" stroke-miterlimit="10" d="
				M30.477,140.628c3.9-4.365,7.859,4.361,0.697,5.181c-2.468,0.282-7.693-3.607-4.402-9.102c3.294-5.496,10.199-2.527,11.694-1.907
				c1.499,0.622,7.531,5.563,5.008,15.119c-2.517,9.561-6.56,11.29-6.56,11.29s4.213-0.787,5.809,1.208
				c1.729-2.927,4.836-13.451,14.406-13.563c9.565-0.106,11.811,3.245,11.811,3.245s-19.271-1.023-20.463,9.956
				c-1.188,10.981,7.006,11.299,7.006,11.299c5.712,0.366,11.7-2.203,10.936-8.844c-0.766-6.639-12.762-6.543-13.1-0.819
				c-0.337,5.809,4.221,4.927,4.221,4.927"/>
		</g>
		<g>
			<path fill="none" stroke="#FFFFFF" stroke-width="2" stroke-linecap="round" stroke-linejoin="round" stroke-miterlimit="10" d="
				M54.834,101.136c0,0,2.582,1.735,4.025-0.825c1.903-3.375-6.638-8.377-8.361-0.798c-0.688,3.036,3.771,7.099,7.934,6.372
				c4.15-0.72,5.971-4.822,5.623-7.199c-1.105-7.682-12.549-12.719-18.206-4.293c-12.485,18.593,5.825,41.286,26.08,46.48"/>
			<path fill="none" stroke="#FFFFFF" stroke-width="2" stroke-linecap="round" stroke-linejoin="round" stroke-miterlimit="10" d="
				M36.786,121.221c0.586,5.827,8.918,1.093,3.604-3.777c-1.83-1.683-8.344-1.604-8.908,4.775c-0.566,6.375,6.766,8.037,8.34,8.411
				c1.575,0.382,9.364-0.074,12.939-9.286c3.576-9.212,1.324-12.995,1.324-12.995s2.946,3.12,5.416,2.443
				c-0.326,3.385-4,13.722,3.68,19.436c7.68,5.718,11.464,4.319,11.464,4.319s-16.193-10.5-10.703-20.079
				c5.491-9.584,12.304-5.025,12.304-5.025c4.841,3.059,8.176,8.658,3.651,13.581c-4.521,4.926-14.169-2.207-11.077-7.034
				c3.138-4.894,6.305-1.507,6.305-1.507"/>
		</g>
	</g>
	<g>
		<g>
			<path fill="none" stroke="#FFFFFF" stroke-width="2" stroke-linecap="round" stroke-linejoin="round" stroke-miterlimit="10" d="
				M54.838,254.36c0,0,2.582-1.731,4.025,0.824c1.902,3.373-6.637,8.377-8.358,0.798c-0.69-3.037,3.776-7.103,7.927-6.376
				c4.156,0.726,5.975,4.825,5.636,7.199c-1.113,7.689-12.558,12.721-18.216,4.294c-12.482-18.589,5.828-41.282,26.082-46.472"/>
			<path fill="none" stroke="#FFFFFF" stroke-width="2" stroke-linecap="round" stroke-linejoin="round" stroke-miterlimit="10" d="
				M36.788,234.274c0.59-5.823,8.922-1.092,3.609,3.781c-1.83,1.679-8.345,1.604-8.911-4.776c-0.565-6.382,6.766-8.038,8.34-8.417
				c1.578-0.377,9.362,0.074,12.938,9.289c3.583,9.214,1.328,12.988,1.328,12.988s2.946-3.113,5.41-2.437
				c-0.322-3.385-3.994-13.726,3.683-19.44c7.676-5.709,11.462-4.316,11.462-4.316s-16.193,10.498-10.703,20.082
				c5.494,9.582,12.31,5.023,12.31,5.023c4.836-3.063,8.171-8.66,3.649-13.582s-14.171,2.207-11.08,7.036
				c3.141,4.896,6.311,1.505,6.311,1.505"/>
		</g>
		<g>
			<path fill="none" stroke="#FFFFFF" stroke-width="2" stroke-linecap="round" stroke-linejoin="round" stroke-miterlimit="10" d="
				M33.282,188.007c0,0,3.108-0.114,2.771-3.034c-0.444-3.849-10.295-2.875-7.234,4.271c1.229,2.859,7.225,3.525,10.164,0.49
				c2.934-3.021,1.996-7.41,0.317-9.13c-5.409-5.563-17.628-2.913-17.253,7.229c0.828,22.38,28.98,29.976,48.42,22.272"/>
			<path fill="none" stroke="#FFFFFF" stroke-width="2" stroke-linecap="round" stroke-linejoin="round" stroke-miterlimit="10" d="
				M30.485,214.865c3.898,4.369,7.857-4.356,0.695-5.175c-2.471-0.284-7.693,3.606-4.4,9.102c3.289,5.489,10.197,2.522,11.691,1.9
				c1.498-0.615,7.531-5.563,5.01-15.116c-2.521-9.556-6.566-11.292-6.566-11.292s4.217,0.792,5.817-1.207
				c1.726,2.931,4.829,13.453,14.401,13.562c9.574,0.112,11.813-3.244,11.813-3.244s-19.272,1.023-20.461-9.953
				c-1.191-10.98,7-11.297,7-11.297c5.715-0.372,11.703,2.198,10.938,8.841c-0.764,6.642-12.76,6.543-13.098,0.819
				c-0.337-5.803,4.216-4.924,4.216-4.924"/>
		</g>
	</g>
	<g>
		<g>
			<path fill="none" stroke="#FFFFFF" stroke-width="2" stroke-linecap="round" stroke-linejoin="round" stroke-miterlimit="10" d="
				M123.346,311.965c0,0,1.07-2.919,3.742-1.699c3.521,1.611-0.446,10.678-6.293,5.56c-2.344-2.052-1.12-7.966,2.664-9.818
				c3.789-1.855,7.67,0.393,8.791,2.513c3.619,6.875-2.682,17.673-12.213,14.182c-21.024-7.701-19.55-36.824-6.215-52.928"/>
			<path fill="none" stroke="#FFFFFF" stroke-width="2" stroke-linecap="round" stroke-linejoin="round" stroke-miterlimit="10" d="
				M96.937,306.326c-2.946-5.06,6.577-6.128,5.144,0.938c-0.495,2.436-5.811,6.202-10.018,1.374
				c-4.209-4.83,0.748-10.479,1.8-11.711c1.056-1.233,7.618-5.443,15.927-0.092c8.314,5.348,8.709,9.729,8.709,9.729
				s0.555-4.251,2.945-5.151c-2.25-2.548-11.299-8.757-8.447-17.893c2.854-9.13,6.735-10.229,6.735-10.229
				s-6.931,18.012,3.146,22.538c10.076,4.521,12.91-3.171,12.91-3.171c2.113-5.32,1.521-11.811-5.03-13.135
				c-6.552-1.323-10.167,10.115-4.829,12.205c5.42,2.116,5.99-2.491,5.99-2.491"/>
		</g>
		<g>
			<path fill="none" stroke="#FFFFFF" stroke-width="2" stroke-linecap="round" stroke-linejoin="round" stroke-miterlimit="10" d="
				M66.907,270.956c0,0,2.447-1.919,0.459-4.083c-2.623-2.854-10.02,3.726-3.344,7.706c2.676,1.592,7.917-1.395,8.512-5.576
				c0.596-4.17-2.741-7.169-5.109-7.573c-7.647-1.322-15.975,8.005-9.709,15.989c13.824,17.619,41.064,7.217,52.264-10.44"/>
			<path fill="none" stroke="#FFFFFF" stroke-width="2" stroke-linecap="round" stroke-linejoin="round" stroke-miterlimit="10" d="
				M80.43,294.329c5.723,1.244,3.795-8.145-2.479-4.596c-2.167,1.223-4.104,7.439,1.789,9.948c5.887,2.508,9.732-3.951,10.576-5.334
				c0.85-1.379,2.822-8.928-4.834-15.175c-7.655-6.247-11.949-5.274-11.949-5.274s3.877-1.838,3.997-4.396
				c3.118,1.356,11.813,8.045,19.622,2.507c7.813-5.537,7.65-9.568,7.65-9.568s-14.99,12.156-22.404,3.976
				c-7.418-8.185-0.977-13.254-0.977-13.254c4.404-3.659,10.76-5.102,14.045,0.724c3.286,5.822-6.477,12.794-10.115,8.361
				c-3.683-4.496,0.518-6.461,0.518-6.461"/>
		</g>
	</g>
	<g>
		<g>
			<path fill="none" stroke="#FFFFFF" stroke-width="2" stroke-linecap="round" stroke-linejoin="round" stroke-miterlimit="10" d="
				M212.63,318.301c0,0-0.85-2.99,2.028-3.574c3.797-0.766,5.916,8.9-1.824,8.195c-3.101-0.281-5.588-5.785-3.615-9.509
				c1.975-3.729,6.436-4.19,8.59-3.135c6.969,3.436,8.218,15.873-1.546,18.65c-21.536,6.128-37.461-18.301-36.138-39.165"/>
			<path fill="none" stroke="#FFFFFF" stroke-width="2" stroke-linecap="round" stroke-linejoin="round" stroke-miterlimit="10" d="
				M187.95,329.262c-5.357-2.361,1.719-8.824,4.713-2.266c1.03,2.262-1.056,8.434-7.297,7c-6.244-1.435-5.555-8.918-5.428-10.532
				c0.129-1.618,2.964-8.882,12.831-9.437c9.87-0.562,12.764,2.751,12.764,2.751s-2.05-3.765-0.646-5.897
				c-3.316-0.738-14.287-0.443-17.351-9.51c-3.058-9.063-0.563-12.234-0.563-12.234s4.98,18.645,15.793,16.385
				c10.81-2.264,8.58-10.153,8.58-10.153c-1.417-5.548-5.711-10.447-11.789-7.669c-6.079,2.779-2.28,14.158,3.267,12.713
				c5.63-1.475,3.382-5.536,3.382-5.536"/>
		</g>
		<g>
			<path fill="none" stroke="#FFFFFF" stroke-width="2" stroke-linecap="round" stroke-linejoin="round" stroke-miterlimit="10" d="
				M142.866,318.298c0,0,0.852-2.991-2.029-3.573c-3.799-0.766-5.916,8.904,1.824,8.199c3.1-0.285,5.586-5.78,3.608-9.514
				c-1.969-3.725-6.431-4.188-8.585-3.123c-6.965,3.425-8.219,15.864,1.544,18.642c21.54,6.129,37.464-18.299,36.146-39.166"/>
			<path fill="none" stroke="#FFFFFF" stroke-width="2" stroke-linecap="round" stroke-linejoin="round" stroke-miterlimit="10" d="
				M167.543,329.258c5.361-2.357-1.716-8.818-4.705-2.26c-1.035,2.262,1.052,8.431,7.295,6.996c6.236-1.433,5.551-8.917,5.42-10.531
				c-0.123-1.615-2.964-8.882-12.83-9.437c-9.865-0.555-12.767,2.757-12.767,2.757s2.056-3.767,0.649-5.906
				c3.32-0.734,14.286-0.436,17.348-9.505c3.066-9.071,0.565-12.237,0.565-12.237s-4.982,18.646-15.79,16.385
				c-10.811-2.262-8.58-10.148-8.58-10.148c1.413-5.551,5.707-10.45,11.789-7.67c6.08,2.777,2.279,14.156-3.27,12.71
				c-5.621-1.474-3.379-5.531-3.379-5.531"/>
		</g>
	</g>
	<g>
		<g>
			<path fill="none" stroke="#FFFFFF" stroke-width="2" stroke-linecap="round" stroke-linejoin="round" stroke-miterlimit="10" d="
				M288.586,270.948c0,0-2.444-1.921-0.459-4.085c2.621-2.852,10.018,3.724,3.341,7.702c-2.674,1.596-7.921-1.396-8.514-5.566
				c-0.594-4.178,2.743-7.174,5.106-7.584c7.657-1.318,15.979,8.01,9.713,15.996c-13.822,17.616-41.064,7.214-52.258-10.443"/>
			<path fill="none" stroke="#FFFFFF" stroke-width="2" stroke-linecap="round" stroke-linejoin="round" stroke-miterlimit="10" d="
				M275.063,294.322c-5.723,1.239-3.797-8.148,2.48-4.603c2.163,1.225,4.104,7.443-1.789,9.952c-5.894,2.51-9.735-3.95-10.582-5.331
				c-0.846-1.385-2.822-8.928,4.835-15.175c7.655-6.257,11.943-5.276,11.943-5.276s-3.872-1.842-3.989-4.393
				c-3.117,1.352-11.819,8.039-19.627,2.504c-7.801-5.535-7.646-9.566-7.646-9.566s14.988,12.156,22.407,3.974
				c7.415-8.187,0.974-13.259,0.974-13.259c-4.408-3.653-10.762-5.096-14.046,0.726s6.478,12.795,10.114,8.364
				c3.689-4.502-0.518-6.467-0.518-6.467"/>
		</g>
		<g>
			<path fill="none" stroke="#FFFFFF" stroke-width="2" stroke-linecap="round" stroke-linejoin="round" stroke-miterlimit="10" d="
				M232.145,311.952c0,0-1.07-2.92-3.742-1.698c-3.523,1.614,0.447,10.681,6.295,5.562c2.34-2.053,1.121-7.96-2.673-9.817
				c-3.781-1.854-7.665,0.393-8.781,2.52c-3.621,6.865,2.677,17.666,12.206,14.175c21.029-7.702,19.553-36.824,6.222-52.933"/>
			<path fill="none" stroke="#FFFFFF" stroke-width="2" stroke-linecap="round" stroke-linejoin="round" stroke-miterlimit="10" d="
				M258.551,306.313c2.951-5.059-6.571-6.125-5.135,0.938c0.492,2.438,5.807,6.203,10.014,1.372
				c4.204-4.823-0.75-10.478-1.805-11.706c-1.049-1.234-7.619-5.443-15.926-0.092c-8.308,5.35-8.709,9.733-8.709,9.733
				s-0.551-4.256-2.946-5.16c2.255-2.547,11.302-8.749,8.448-17.887c-2.852-9.141-6.736-10.232-6.736-10.232
				s6.93,18.014-3.143,22.537c-10.076,4.523-12.908-3.168-12.908-3.168c-2.119-5.319-1.525-11.809,5.029-13.135
				c6.553-1.326,10.166,10.113,4.826,12.204c-5.414,2.112-5.984-2.488-5.984-2.488"/>
		</g>
	</g>
	<g>
		<g>
			<path fill="none" stroke="#FFFFFF" stroke-width="2" stroke-linecap="round" stroke-linejoin="round" stroke-miterlimit="10" d="
				M322.203,187.992c0,0-3.105-0.116-2.771-3.034c0.444-3.848,10.292-2.876,7.229,4.268c-1.227,2.862-7.229,3.527-10.16,0.5
				c-2.935-3.029-1.997-7.416-0.326-9.137c5.42-5.568,17.635-2.912,17.26,7.23c-0.826,22.379-28.979,29.975-48.415,22.27"/>
			<path fill="none" stroke="#FFFFFF" stroke-width="2" stroke-linecap="round" stroke-linejoin="round" stroke-miterlimit="10" d="
				M325,214.851c-3.9,4.366-7.861-4.361-0.697-5.182c2.47-0.28,7.694,3.609,4.402,9.103c-3.293,5.495-10.199,2.527-11.695,1.907
				c-1.498-0.623-7.531-5.563-5.008-15.118c2.516-9.562,6.562-11.289,6.562-11.289s-4.216,0.786-5.81-1.209
				c-1.729,2.927-4.837,13.451-14.407,13.563c-9.563,0.106-11.809-3.245-11.809-3.245s19.271,1.024,20.463-9.957
				c1.188-10.98-7.005-11.298-7.005-11.298c-5.715-0.365-11.702,2.203-10.938,8.842c0.765,6.641,12.761,6.544,13.1,0.822
				c0.338-5.812-4.221-4.928-4.221-4.928"/>
		</g>
		<g>
			<path fill="none" stroke="#FFFFFF" stroke-width="2" stroke-linecap="round" stroke-linejoin="round" stroke-miterlimit="10" d="
				M300.643,254.34c0,0-2.583-1.733-4.025,0.825c-1.901,3.378,6.64,8.378,8.361,0.8c0.687-3.036-3.771-7.1-7.934-6.373
				c-4.149,0.723-5.971,4.824-5.624,7.201c1.106,7.682,12.55,12.719,18.207,4.293c12.485-18.594-5.827-41.285-26.08-46.48"/>
			<path fill="none" stroke="#FFFFFF" stroke-width="2" stroke-linecap="round" stroke-linejoin="round" stroke-miterlimit="10" d="
				M318.691,234.256c-0.585-5.826-8.917-1.092-3.604,3.777c1.831,1.684,8.344,1.604,8.908-4.775c0.564-6.373-6.766-8.035-8.342-8.41
				c-1.574-0.382-9.363,0.074-12.938,9.287c-3.577,9.211-1.324,12.994-1.324,12.994s-2.946-3.119-5.416-2.443
				c0.326-3.385,4-13.721-3.68-19.436c-7.68-5.719-11.465-4.319-11.465-4.319s16.195,10.499,10.705,20.08
				c-5.492,9.583-12.305,5.024-12.305,5.024c-4.842-3.06-8.175-8.656-3.652-13.582c4.522-4.926,14.17,2.206,11.078,7.036
				c-3.139,4.892-6.304,1.505-6.304,1.505"/>
		</g>
	</g>
	<g>
		<g>
			<path fill="none" stroke="#FFFFFF" stroke-width="2" stroke-linecap="round" stroke-linejoin="round" stroke-miterlimit="10" d="
				M300.639,101.12c0,0-2.581,1.73-4.024-0.826c-1.902-3.374,6.635-8.376,8.355-0.797c0.69,3.036-3.773,7.103-7.926,6.377
				c-4.155-0.728-5.976-4.826-5.634-7.2c1.111-7.69,12.555-12.721,18.213-4.295c12.484,18.59-5.827,41.284-26.078,46.474"/>
			<path fill="none" stroke="#FFFFFF" stroke-width="2" stroke-linecap="round" stroke-linejoin="round" stroke-miterlimit="10" d="
				M318.69,121.205c-0.591,5.825-8.925,1.092-3.61-3.782c1.833-1.678,8.347-1.603,8.913,4.776c0.564,6.381-6.768,8.04-8.342,8.417
				c-1.578,0.376-9.363-0.074-12.938-9.288c-3.585-9.214-1.328-12.989-1.328-12.989s-2.946,3.113-5.409,2.436
				c0.321,3.384,3.992,13.726-3.685,19.44c-7.674,5.709-11.461,4.316-11.461,4.316s16.193-10.498,10.703-20.083
				c-5.494-9.581-12.309-5.023-12.309-5.023c-4.838,3.063-8.172,8.661-3.65,13.583c4.521,4.923,14.17-2.207,11.08-7.035
				c-3.141-4.898-6.311-1.505-6.311-1.505"/>
		</g>
		<g>
			<path fill="none" stroke="#FFFFFF" stroke-width="2" stroke-linecap="round" stroke-linejoin="round" stroke-miterlimit="10" d="
				M322.196,167.47c0,0-3.109,0.116-2.772,3.034c0.446,3.85,10.296,2.875,7.235-4.27c-1.23-2.858-7.226-3.526-10.164-0.492
				c-2.934,3.022-1.996,7.413-0.318,9.132c5.411,5.563,17.629,2.913,17.254-7.229c-0.828-22.381-28.98-29.975-48.42-22.273"/>
			<path fill="none" stroke="#FFFFFF" stroke-width="2" stroke-linecap="round" stroke-linejoin="round" stroke-miterlimit="10" d="
				M324.992,140.614c-3.898-4.37-7.856,4.357-0.694,5.174c2.471,0.285,7.693-3.605,4.399-9.101
				c-3.288-5.488-10.196-2.523-11.692-1.9c-1.497,0.615-7.531,5.563-5.008,15.117c2.521,9.555,6.566,11.291,6.566,11.291
				s-4.218-0.791-5.816,1.207c-1.728-2.93-4.83-13.451-14.401-13.561c-9.575-0.112-11.813,3.244-11.813,3.244
				s19.273-1.025,20.464,9.953c1.188,10.98-7.002,11.297-7.002,11.297c-5.715,0.371-11.701-2.198-10.938-8.841
				c0.764-6.644,12.76-6.544,13.098-0.819c0.336,5.802-4.215,4.923-4.215,4.923"/>
		</g>
	</g>
	<g>
		<g>
			<path fill="none" stroke="#FFFFFF" stroke-width="2" stroke-linecap="round" stroke-linejoin="round" stroke-miterlimit="10" d="
				M232.131,43.514c0,0-1.07,2.917-3.742,1.698c-3.521-1.611,0.445-10.677,6.293-5.557c2.342,2.05,1.121,7.964-2.664,9.817
				c-3.789,1.854-7.671-0.392-8.79-2.514c-3.622-6.875,2.679-17.671,12.21-14.181c21.027,7.702,19.551,36.825,6.219,52.928"/>
			<path fill="none" stroke="#FFFFFF" stroke-width="2" stroke-linecap="round" stroke-linejoin="round" stroke-miterlimit="10" d="
				M258.541,49.153c2.947,5.061-6.577,6.129-5.144-0.938c0.496-2.435,5.811-6.202,10.018-1.375
				c4.209,4.831-0.748,10.48-1.801,11.713c-1.056,1.231-7.618,5.443-15.926,0.09c-8.316-5.347-8.709-9.728-8.709-9.728
				s-0.555,4.251-2.944,5.15c2.249,2.549,11.298,8.758,8.446,17.894c-2.854,9.129-6.736,10.229-6.736,10.229
				s6.931-18.012-3.145-22.539c-10.076-4.521-12.91,3.171-12.91,3.171c-2.113,5.322-1.521,11.812,5.03,13.136
				c6.552,1.325,10.166-10.114,4.829-12.204c-5.421-2.118-5.99,2.491-5.99,2.491"/>
		</g>
		<g>
			<path fill="none" stroke="#FFFFFF" stroke-width="2" stroke-linecap="round" stroke-linejoin="round" stroke-miterlimit="10" d="
				M288.571,84.521c0,0-2.447,1.921-0.46,4.084c2.624,2.854,10.02-3.726,3.345-7.707c-2.676-1.589-7.918,1.395-8.512,5.576
				c-0.596,4.17,2.741,7.17,5.109,7.575c7.648,1.321,15.975-8.005,9.709-15.99c-13.825-17.62-41.064-7.216-52.265,10.44"/>
			<path fill="none" stroke="#FFFFFF" stroke-width="2" stroke-linecap="round" stroke-linejoin="round" stroke-miterlimit="10" d="
				M275.046,61.15c-5.722-1.243-3.794,8.145,2.479,4.595c2.166-1.223,4.105-7.439-1.789-9.948
				c-5.887-2.508-9.733,3.951-10.577,5.334c-0.849,1.378-2.823,8.928,4.835,15.174c7.656,6.248,11.949,5.275,11.949,5.275
				s-3.877,1.838-3.996,4.396c-3.119-1.355-11.814-8.044-19.623-2.506c-7.812,5.537-7.65,9.569-7.65,9.569
				s14.99-12.158,22.405-3.977c7.417,8.186,0.976,13.255,0.976,13.255c-4.404,3.659-10.758,5.101-14.045-0.724
				c-3.287-5.823,6.477-12.795,10.115-8.362c3.682,4.497-0.517,6.46-0.517,6.46"/>
		</g>
	</g>
</g>
<g>
	<circle fill="#FFFFFF" cx="177.739" cy="75.998" r="2.19"/>
	<circle fill="#FFFFFF" cx="170.642" cy="76.245" r="2.191"/>
	<circle fill="#FFFFFF" cx="163.579" cy="76.987" r="2.19"/>
	<circle fill="#FFFFFF" cx="156.585" cy="78.22" r="2.19"/>
	<circle fill="#FFFFFF" cx="149.694" cy="79.937" r="2.19"/>
	<circle fill="#FFFFFF" cx="142.94" cy="82.132" r="2.19"/>
	<circle fill="#FFFFFF" cx="136.355" cy="84.792" r="2.19"/>
	<circle fill="#FFFFFF" cx="129.972" cy="87.905" r="2.19"/>
	<circle fill="#FFFFFF" cx="123.822" cy="91.456" r="2.19"/>
	<circle fill="#FFFFFF" cx="117.935" cy="95.427" r="2.19"/>
	<circle fill="#FFFFFF" cx="112.339" cy="99.799" r="2.19"/>
	<circle fill="#FFFFFF" cx="107.061" cy="104.551" r="2.19"/>
	<circle fill="#FFFFFF" cx="102.128" cy="109.659" r="2.19"/>
	<circle fill="#FFFFFF" cx="97.563" cy="115.099" r="2.191"/>
	<circle fill="#FFFFFF" cx="93.389" cy="120.844" r="2.191"/>
	<circle fill="#FFFFFF" cx="89.625" cy="126.866" r="2.191"/>
	<circle fill="#FFFFFF" cx="86.291" cy="133.136" r="2.191"/>
	<path fill="#FFFFFF" d="M84.222,137.592c-1.122-0.452-2.398,0.09-2.851,1.213c-0.456,1.121,0.086,2.398,1.211,2.852
		c1.123,0.451,2.398-0.09,2.852-1.212C85.885,139.323,85.344,138.046,84.222,137.592z"/>
	<circle fill="#FFFFFF" cx="80.973" cy="146.297" r="2.191"/>
	<circle fill="#FFFFFF" cx="79.015" cy="153.124" r="2.191"/>
	<circle fill="#FFFFFF" cx="77.538" cy="160.07" r="2.191"/>
	<path fill="#FFFFFF" d="M76.777,164.923c-1.202-0.125-2.28,0.748-2.405,1.951c-0.128,1.204,0.744,2.282,1.949,2.408
		c1.206,0.123,2.282-0.748,2.408-1.952C78.854,166.128,77.98,165.051,76.777,164.923z"/>
	<path fill="#FFFFFF" d="M76.128,171.997c-1.208-0.041-2.222,0.904-2.263,2.114c-0.045,1.208,0.901,2.225,2.112,2.267
		c1.211,0.039,2.225-0.905,2.267-2.115C78.285,173.054,77.338,172.041,76.128,171.997z"/>
	<path fill="#FFFFFF" d="M75.976,179.099c-1.208,0.043-2.154,1.059-2.11,2.268c0.039,1.209,1.054,2.154,2.264,2.112
		c1.211-0.046,2.157-1.058,2.115-2.269C78.2,180.002,77.185,179.058,75.976,179.099z"/>
	<path fill="#FFFFFF" d="M76.318,186.194c-1.201,0.127-2.075,1.205-1.946,2.409c0.124,1.203,1.203,2.077,2.405,1.95
		c1.206-0.131,2.079-1.206,1.952-2.411C78.601,186.94,77.521,186.069,76.318,186.194z"/>
	<path fill="#FFFFFF" d="M77.154,193.248c-1.189,0.21-1.985,1.347-1.773,2.539c0.207,1.191,1.344,1.987,2.535,1.776
		c1.194-0.214,1.99-1.347,1.78-2.541C79.484,193.833,78.346,193.039,77.154,193.248z"/>
	<path fill="#FFFFFF" d="M78.481,200.226c-1.171,0.293-1.887,1.482-1.592,2.656c0.29,1.175,1.48,1.889,2.653,1.596
		c1.176-0.296,1.891-1.481,1.598-2.658C80.845,200.648,79.655,199.935,78.481,200.226z"/>
	<path fill="#FFFFFF" d="M80.291,207.095c-1.147,0.374-1.779,1.61-1.402,2.761c0.371,1.151,1.609,1.781,2.757,1.407
		c1.152-0.378,1.783-1.612,1.409-2.765C82.679,207.351,81.442,206.722,80.291,207.095z"/>
	<path fill="#FFFFFF" d="M82.576,213.821c-1.118,0.453-1.662,1.73-1.207,2.854c0.451,1.122,1.729,1.664,2.849,1.211
		c1.124-0.458,1.667-1.732,1.213-2.855C84.977,213.91,83.699,213.369,82.576,213.821z"/>
	<path fill="#FFFFFF" d="M85.325,220.372c-1.084,0.528-1.538,1.842-1.005,2.929c0.528,1.088,1.842,1.54,2.927,1.01
		c1.088-0.535,1.542-1.845,1.011-2.934C87.725,220.292,86.413,219.841,85.325,220.372z"/>
	<path fill="#FFFFFF" d="M88.523,226.713c-1.044,0.604-1.405,1.945-0.798,2.992c0.602,1.049,1.944,1.407,2.99,0.804
		c1.048-0.61,1.409-1.948,0.803-2.997C90.912,226.467,89.573,226.109,88.523,226.713z"/>
	<path fill="#FFFFFF" d="M92.157,232.818c-1,0.675-1.267,2.038-0.587,3.04c0.673,1.005,2.038,1.271,3.039,0.594
		c1.003-0.683,1.271-2.041,0.592-3.047C94.522,232.405,93.162,232.141,92.157,232.818z"/>
	<path fill="#FFFFFF" d="M96.207,238.654c-0.951,0.741-1.121,2.122-0.375,3.072c0.743,0.956,2.122,1.125,3.073,0.381
		c0.954-0.75,1.125-2.126,0.378-3.08C98.539,238.077,97.163,237.909,96.207,238.654z"/>
	<path fill="#FFFFFF" d="M100.655,244.192c-0.896,0.808-0.971,2.195-0.16,3.092c0.808,0.901,2.196,0.976,3.092,0.166
		c0.9-0.814,0.974-2.198,0.163-3.099C102.94,243.454,101.556,243.382,100.655,244.192z"/>
	<path fill="#FFFFFF" d="M105.478,249.407c-0.837,0.866-0.815,2.258,0.056,3.094c0.869,0.845,2.259,0.822,3.096-0.049
		c0.841-0.875,0.818-2.263-0.053-3.103C107.707,248.511,106.321,248.536,105.478,249.407z"/>
	<path fill="#FFFFFF" d="M110.653,254.273c-0.775,0.923-0.656,2.31,0.272,3.083c0.925,0.781,2.311,0.661,3.084-0.266
		c0.778-0.932,0.658-2.313-0.269-3.091C112.814,253.223,111.433,253.345,110.653,254.273z"/>
	<path fill="#FFFFFF" d="M116.156,258.766c-0.708,0.975-0.494,2.35,0.486,3.058c0.977,0.715,2.351,0.498,3.059-0.48
		c0.711-0.984,0.495-2.353-0.484-3.064C118.238,257.569,116.869,257.787,116.156,258.766z"/>
	<path fill="#FFFFFF" d="M121.957,262.865c-0.638,1.021-0.328,2.378,0.698,3.015c1.025,0.646,2.38,0.334,3.018-0.693
		c0.641-1.029,0.33-2.381-0.696-3.021S122.601,261.837,121.957,262.865z"/>
	<path fill="#FFFFFF" d="M128.031,266.547c-0.564,1.063-0.162,2.396,0.906,2.96c1.068,0.571,2.399,0.167,2.962-0.902
		c0.567-1.071,0.163-2.397-0.905-2.966C129.927,265.073,128.601,265.479,128.031,266.547z"/>
	<path fill="#FFFFFF" d="M134.347,269.799c-0.488,1.1,0.006,2.399,1.111,2.889c1.104,0.496,2.404-0.001,2.892-1.105
		c0.491-1.11-0.005-2.404-1.11-2.896C136.135,268.197,134.841,268.693,134.347,269.799z"/>
	<path fill="#FFFFFF" d="M140.874,272.601c-0.411,1.133,0.173,2.395,1.309,2.804c1.137,0.42,2.399-0.168,2.809-1.304
		c0.412-1.142-0.174-2.397-1.31-2.813C142.546,270.878,141.291,271.463,140.874,272.601z"/>
	<path fill="#FFFFFF" d="M147.581,274.941c-0.331,1.158,0.339,2.375,1.501,2.706c1.164,0.339,2.382-0.335,2.712-1.497
		c0.331-1.167-0.341-2.379-1.504-2.714C149.129,273.106,147.917,273.778,147.581,274.941z"/>
	<path fill="#FFFFFF" d="M154.434,276.807c-0.249,1.179,0.505,2.346,1.687,2.595c1.185,0.258,2.354-0.5,2.601-1.683
		c0.249-1.187-0.506-2.35-1.689-2.602C155.851,274.869,154.689,275.624,154.434,276.807z"/>
	<path fill="#FFFFFF" d="M161.401,278.192c-0.167,1.191,0.667,2.306,1.864,2.472c1.2,0.174,2.312-0.663,2.477-1.86
		c0.166-1.201-0.668-2.309-1.867-2.477C162.679,276.159,161.573,276.993,161.401,278.192z"/>
	<path fill="#FFFFFF" d="M168.449,279.086c-0.083,1.2,0.826,2.253,2.031,2.335c1.209,0.09,2.26-0.823,2.341-2.028
		c0.082-1.21-0.827-2.258-2.036-2.341C169.581,276.968,168.535,277.879,168.449,279.086z"/>
	<path fill="#FFFFFF" d="M175.541,279.488c0.002,1.203,0.981,2.188,2.188,2.188c1.213,0.005,2.197-0.979,2.194-2.188
		c-0.002-1.211-0.982-2.192-2.194-2.191C176.522,277.295,175.542,278.277,175.541,279.488z"/>
	<path fill="#FFFFFF" d="M182.643,279.394c0.086,1.198,1.131,2.114,2.336,2.028c1.211-0.079,2.124-1.129,2.035-2.335
		c-0.085-1.208-1.132-2.119-2.341-2.034C183.47,277.137,182.561,278.185,182.643,279.394z"/>
	<path fill="#FFFFFF" d="M189.722,278.803c0.17,1.19,1.276,2.031,2.472,1.861c1.202-0.163,2.04-1.273,1.868-2.472
		c-0.171-1.199-1.278-2.034-2.478-1.865C190.39,276.496,189.556,277.603,189.722,278.803z"/>
	<path fill="#FFFFFF" d="M196.743,277.72c0.252,1.176,1.415,1.938,2.595,1.687c1.188-0.247,1.946-1.413,1.691-2.597
		c-0.254-1.185-1.416-1.94-2.601-1.688C197.248,275.373,196.493,276.535,196.743,277.72z"/>
	<path fill="#FFFFFF" d="M203.671,276.151c0.333,1.156,1.546,1.833,2.705,1.501c1.168-0.329,1.844-1.547,1.507-2.707
		c-0.336-1.162-1.549-1.839-2.713-1.504C204.011,273.774,203.338,274.985,203.671,276.151z"/>
	<path fill="#FFFFFF" d="M210.473,274.102c0.412,1.13,1.67,1.72,2.803,1.31c1.143-0.41,1.73-1.673,1.314-2.807
		c-0.416-1.138-1.674-1.726-2.811-1.311C210.645,271.707,210.06,272.961,210.473,274.102z"/>
	<path fill="#FFFFFF" d="M217.116,271.583c0.489,1.099,1.784,1.599,2.887,1.109c1.11-0.488,1.61-1.79,1.115-2.891
		c-0.494-1.106-1.79-1.605-2.896-1.111C217.121,269.182,216.624,270.474,217.116,271.583z"/>
	<path fill="#FFFFFF" d="M223.566,268.607c0.564,1.063,1.892,1.473,2.956,0.907c1.074-0.564,1.482-1.896,0.911-2.962
		c-0.568-1.069-1.896-1.476-2.965-0.906C223.403,266.212,222.998,267.537,223.566,268.607z"/>
	<path fill="#FFFFFF" d="M229.792,265.189c0.638,1.021,1.989,1.336,3.013,0.699c1.031-0.64,1.347-1.997,0.702-3.019
		c-0.642-1.027-1.995-1.341-3.021-0.697C229.462,262.811,229.153,264.161,229.792,265.189z"/>
	<path fill="#FFFFFF" d="M235.765,261.345c0.707,0.974,2.078,1.194,3.055,0.486c0.985-0.709,1.204-2.086,0.489-3.061
		c-0.711-0.979-2.083-1.197-3.063-0.483C235.271,258.995,235.056,260.365,235.765,261.345z"/>
	<path fill="#FFFFFF" d="M241.456,257.093c0.773,0.922,2.156,1.047,3.081,0.272c0.933-0.775,1.056-2.165,0.276-3.087
		c-0.778-0.929-2.162-1.05-3.09-0.271C240.798,254.783,240.679,256.165,241.456,257.093z"/>
	<path fill="#FFFFFF" d="M246.835,252.456c0.836,0.865,2.225,0.894,3.093,0.057c0.876-0.84,0.903-2.233,0.061-3.098
		c-0.841-0.873-2.23-0.896-3.101-0.055C246.019,250.196,245.997,251.583,246.835,252.456z"/>
	<path fill="#FFFFFF" d="M251.878,247.453c0.896,0.806,2.282,0.736,3.09-0.158c0.815-0.898,0.744-2.292-0.156-3.094
		c-0.898-0.813-2.287-0.74-3.097,0.16C250.907,245.256,250.981,246.64,251.878,247.453z"/>
	<path fill="#FFFFFF" d="M256.561,242.112c0.948,0.74,2.328,0.575,3.07-0.374c0.751-0.953,0.583-2.338-0.371-3.074
		c-0.953-0.749-2.334-0.579-3.078,0.377C255.439,239.99,255.609,241.365,256.561,242.112z"/>
	<path fill="#FFFFFF" d="M260.859,236.456c0.998,0.674,2.363,0.412,3.038-0.587c0.683-1.004,0.417-2.372-0.586-3.041
		c-1.003-0.683-2.367-0.415-3.044,0.59C259.59,234.417,259.857,235.777,260.859,236.456z"/>
	<path fill="#FFFFFF" d="M264.752,230.514c1.043,0.604,2.385,0.247,2.989-0.798c0.61-1.049,0.251-2.396-0.797-2.993
		c-1.048-0.607-2.39-0.248-2.996,0.803C263.345,228.569,263.705,229.907,264.752,230.514z"/>
	<path fill="#FFFFFF" d="M268.222,224.316c1.083,0.528,2.395,0.08,2.927-1.005c0.535-1.089,0.082-2.407-1.005-2.93
		c-1.086-0.534-2.401-0.082-2.932,1.01C266.682,222.473,267.134,223.784,268.222,224.316z"/>
	<path fill="#FFFFFF" d="M271.251,217.89c1.116,0.452,2.394-0.087,2.849-1.206c0.458-1.123-0.086-2.408-1.206-2.853
		c-1.121-0.457-2.401,0.087-2.855,1.212C269.586,216.16,270.128,217.435,271.251,217.89z"/>
	<path fill="#FFFFFF" d="M273.824,211.269c1.145,0.373,2.383-0.255,2.759-1.401c0.377-1.151-0.254-2.396-1.402-2.762
		c-1.15-0.378-2.39,0.254-2.765,1.408C272.042,209.66,272.672,210.893,273.824,211.269z"/>
	<path fill="#FFFFFF" d="M275.928,204.485c1.168,0.292,2.359-0.421,2.654-1.592c0.296-1.174-0.42-2.373-1.592-2.656
		c-1.173-0.297-2.365,0.421-2.659,1.599C274.039,203.003,274.753,204.189,275.928,204.485z"/>
	<path fill="#FFFFFF" d="M277.555,197.57c1.186,0.209,2.324-0.584,2.536-1.772c0.213-1.192-0.585-2.338-1.773-2.54
		c-1.19-0.214-2.33,0.584-2.541,1.78C275.567,196.224,276.363,197.357,277.555,197.57z"/>
	<path fill="#FFFFFF" d="M278.695,190.559c1.198,0.126,2.278-0.745,2.406-1.945c0.131-1.205-0.745-2.293-1.945-2.41
		c-1.203-0.13-2.283,0.745-2.412,1.953C276.619,189.354,277.491,190.429,278.695,190.559z"/>
	<path fill="#FFFFFF" d="M279.343,183.485c1.204,0.042,2.22-0.901,2.265-2.108c0.046-1.211-0.903-2.234-2.108-2.27
		c-1.21-0.045-2.228,0.903-2.27,2.117C277.187,182.428,278.133,183.44,279.343,183.485z"/>
	<path fill="#FFFFFF" d="M279.497,176.383c1.203-0.042,2.151-1.055,2.111-2.261c-0.039-1.211-1.057-2.167-2.261-2.116
		c-1.211,0.039-2.159,1.056-2.116,2.27C277.272,175.479,278.286,176.423,279.497,176.383z"/>
	<path fill="#FFFFFF" d="M279.154,169.288c1.198-0.125,2.072-1.202,1.948-2.403c-0.123-1.206-1.204-2.087-2.402-1.954
		c-1.205,0.124-2.08,1.204-1.953,2.412C276.872,168.542,277.95,169.412,279.154,169.288z"/>
	<path fill="#FFFFFF" d="M278.317,162.234c1.188-0.208,1.982-1.344,1.776-2.532c-0.207-1.195-1.347-1.998-2.533-1.781
		c-1.192,0.208-1.991,1.347-1.779,2.542C275.988,161.649,277.125,162.442,278.317,162.234z"/>
	<path fill="#FFFFFF" d="M276.991,155.256c1.17-0.291,1.884-1.479,1.595-2.651c-0.29-1.178-1.483-1.898-2.65-1.6
		c-1.177,0.291-1.894,1.481-1.599,2.66C274.626,154.834,275.815,155.546,276.991,155.256z"/>
	<path fill="#FFFFFF" d="M275.181,148.387c1.146-0.372,1.774-1.605,1.405-2.756c-0.371-1.154-1.612-1.791-2.756-1.411
		c-1.153,0.372-1.784,1.611-1.409,2.766C272.792,148.131,274.028,148.758,275.181,148.387z"/>
	<path fill="#FFFFFF" d="M272.896,141.661c1.117-0.45,1.658-1.728,1.209-2.848c-0.45-1.126-1.732-1.674-2.848-1.216
		c-1.124,0.451-1.667,1.731-1.212,2.857C270.496,141.573,271.771,142.112,272.896,141.661z"/>
	<path fill="#FFFFFF" d="M270.147,135.111c1.083-0.526,1.534-1.838,1.008-2.924c-0.527-1.092-1.845-1.549-2.925-1.014
		c-1.091,0.529-1.544,1.843-1.01,2.935C267.747,135.189,269.058,135.639,270.147,135.111z"/>
	<path fill="#FFFFFF" d="M266.949,128.768c1.043-0.601,1.401-1.94,0.801-2.987c-0.603-1.052-1.948-1.417-2.988-0.808
		c-1.052,0.604-1.411,1.946-0.804,2.998C264.559,129.015,265.899,129.371,266.949,128.768z"/>
	<path fill="#FFFFFF" d="M263.315,122.665c0.998-0.672,1.263-2.034,0.591-3.037c-0.676-1.007-2.043-1.277-3.037-0.597
		c-1.008,0.676-1.272,2.039-0.593,3.047C260.95,123.076,262.311,123.339,263.315,122.665z"/>
	<path fill="#FFFFFF" d="M259.264,116.829c0.949-0.741,1.117-2.117,0.378-3.071c-0.744-0.957-2.127-1.131-3.072-0.383
		c-0.957,0.745-1.126,2.124-0.377,3.081C256.933,117.406,258.31,117.571,259.264,116.829z"/>
	<path fill="#FFFFFF" d="M254.818,111.291c0.894-0.806,0.966-2.19,0.161-3.09c-0.809-0.903-2.2-0.98-3.091-0.168
		c-0.903,0.81-0.976,2.197-0.162,3.1C252.532,112.027,253.917,112.097,254.818,111.291z"/>
	<path fill="#FFFFFF" d="M249.995,106.076c0.836-0.866,0.812-2.252-0.054-3.095c-0.871-0.844-2.265-0.823-3.097,0.05
		c-0.843,0.869-0.819,2.26,0.056,3.103C247.766,106.97,249.151,106.943,249.995,106.076z"/>
	<path fill="#FFFFFF" d="M244.819,101.209c0.773-0.922,0.652-2.304-0.269-3.083c-0.927-0.781-2.317-0.664-3.086,0.264
		c-0.78,0.927-0.659,2.313,0.271,3.092C242.659,102.257,244.039,102.133,244.819,101.209z"/>
	<path fill="#FFFFFF" d="M239.318,96.716c0.707-0.973,0.49-2.344-0.484-3.056c-0.979-0.715-2.357-0.501-3.06,0.479
		c-0.714,0.979-0.497,2.354,0.487,3.066C237.234,97.912,238.603,97.692,239.318,96.716z"/>
	<path fill="#FFFFFF" d="M233.516,92.618c0.638-1.021,0.324-2.373-0.696-3.017c-1.027-0.644-2.387-0.335-3.019,0.691
		c-0.644,1.026-0.332,2.382,0.7,3.023C231.521,93.956,232.872,93.642,233.516,92.618z"/>
	<path fill="#FFFFFF" d="M227.443,88.934c0.563-1.062,0.158-2.389-0.906-2.959c-1.068-0.571-2.404-0.168-2.963,0.9
		c-0.569,1.067-0.165,2.397,0.91,2.968C225.545,90.408,226.871,90,227.443,88.934z"/>
	<path fill="#FFFFFF" d="M221.126,85.684c0.489-1.099-0.008-2.395-1.11-2.889c-1.105-0.495-2.409,0-2.893,1.104
		c-0.493,1.106,0.002,2.405,1.115,2.897C219.336,87.286,220.63,86.787,221.126,85.684z"/>
	<path fill="#FFFFFF" d="M214.599,82.88c0.411-1.13-0.176-2.387-1.309-2.804c-1.138-0.417-2.403,0.168-2.808,1.304
		c-0.416,1.138,0.169,2.398,1.313,2.813C212.925,84.604,214.181,84.016,214.599,82.88z"/>
	<path fill="#FFFFFF" d="M207.892,80.54c0.332-1.156-0.342-2.369-1.502-2.706c-1.163-0.336-2.385,0.335-2.708,1.496
		c-0.336,1.165,0.335,2.381,1.506,2.714C206.342,82.376,207.554,81.702,207.892,80.54z"/>
	<path fill="#FFFFFF" d="M201.038,78.673c0.25-1.176-0.506-2.339-1.686-2.595c-1.185-0.254-2.357,0.501-2.599,1.681
		c-0.253,1.185,0.501,2.352,1.691,2.603C199.62,80.613,200.782,79.856,201.038,78.673z"/>
	<path fill="#FFFFFF" d="M194.071,77.289c0.167-1.191-0.668-2.298-1.863-2.472c-1.199-0.171-2.315,0.664-2.475,1.858
		c-0.169,1.2,0.664,2.312,1.869,2.479C192.792,79.323,193.897,78.487,194.071,77.289z"/>
	<path fill="#FFFFFF" d="M187.023,76.394c0.084-1.2-0.826-2.246-2.029-2.334c-1.21-0.087-2.264,0.825-2.34,2.026
		c-0.084,1.209,0.824,2.26,2.039,2.343C185.89,78.513,186.935,77.602,187.023,76.394z"/>
</g>
<g>
	<g>
		<path fill="#FFFFFF" d="M174.301,17.041c-0.918-0.918-1.423-2.14-1.422-3.438c-0.001-2.331,3.678-10.879,4.097-11.846L177.737,0
			l0.762,1.757c0.42,0.967,4.1,9.516,4.1,11.846l0,0c-0.001,2.681-2.181,4.86-4.86,4.86
			C176.44,18.464,175.219,17.959,174.301,17.041z M177.737,4.216c-1.462,3.524-3.199,8.123-3.197,9.387
			c0,1.708,1.487,3.199,3.199,3.199c1.762,0,3.198-1.435,3.199-3.199C180.937,12.34,179.199,7.741,177.737,4.216z"/>
	</g>
	<g>
		<path fill="#FFFFFF" d="M17.041,181.177c-0.918,0.918-2.139,1.423-3.437,1.422c-2.331,0.001-10.879-3.678-11.846-4.097L0,177.741
			l1.757-0.763c0.967-0.42,9.516-4.1,11.846-4.1l0,0c2.68,0.001,4.86,2.181,4.86,4.86C18.464,179.038,17.959,180.258,17.041,181.177
			z M4.216,177.741c3.524,1.462,8.123,3.198,9.387,3.196c1.708,0,3.199-1.486,3.199-3.198c0-1.763-1.435-3.198-3.199-3.199
			C12.34,174.541,7.741,176.278,4.216,177.741z"/>
	</g>
	<g>
		<path fill="#FFFFFF" d="M181.177,338.437c0.918,0.918,1.423,2.14,1.422,3.438c0.001,2.331-3.678,10.88-4.097,11.847l-0.761,1.757
			l-0.762-1.757c-0.42-0.967-4.1-9.516-4.1-11.847l0,0c0.001-2.681,2.181-4.859,4.86-4.859
			C179.038,337.014,180.258,337.518,181.177,338.437z M177.741,351.261c1.462-3.524,3.199-8.123,3.197-9.388
			c0-1.707-1.487-3.198-3.199-3.198c-1.762,0-3.198,1.435-3.199,3.198C174.541,343.137,176.278,347.737,177.741,351.261z"/>
	</g>
	<g>
		<path fill="#FFFFFF" d="M338.438,174.301c0.918-0.918,2.139-1.423,3.437-1.422c2.331-0.001,10.88,3.678,11.847,4.097l1.757,0.761
			l-1.757,0.763c-0.967,0.42-9.516,4.1-11.847,4.1l0,0c-2.68-0.001-4.859-2.181-4.859-4.859
			C337.014,176.44,337.518,175.219,338.438,174.301z M351.261,177.737c-3.523-1.462-8.123-3.198-9.388-3.196
			c-1.707,0-3.198,1.486-3.198,3.199c0,1.762,1.436,3.197,3.198,3.198C343.137,180.937,347.737,179.199,351.261,177.737z"/>
	</g>
</g>
<g>
	<g>
		<path fill="#FFFFFF" d="M288.938,61.677c0-1.298,0.507-2.519,1.425-3.437c1.647-1.649,10.294-5.093,11.273-5.479l1.781-0.705
			l-0.704,1.781c-0.387,0.98-3.83,9.627-5.478,11.274l0,0c-1.896,1.895-4.979,1.895-6.873,0
			C289.445,64.196,288.938,62.976,288.938,61.677z M300.436,55.039c-3.524,1.458-8.005,3.481-8.897,4.377
			c-1.207,1.208-1.21,3.313,0,4.522c1.246,1.246,3.276,1.247,4.523,0C296.955,63.045,298.978,58.565,300.436,55.039z"/>
	</g>
	<g>
		<path fill="#FFFFFF" d="M61.677,66.539c-1.298,0-2.519-0.506-3.436-1.424c-1.649-1.647-5.092-10.295-5.479-11.274l-0.705-1.781
			l1.781,0.704c0.981,0.386,9.627,3.83,11.275,5.479l0,0c1.895,1.896,1.895,4.979,0,6.873
			C64.196,66.033,62.976,66.539,61.677,66.539z M55.038,55.042c1.458,3.525,3.482,8.005,4.377,8.897c1.208,1.208,3.313,1.21,4.524,0
			c1.246-1.246,1.247-3.275,0-4.523C63.045,58.522,58.564,56.5,55.038,55.042z"/>
	</g>
	<g>
		<path fill="#FFFFFF" d="M66.539,293.8c0,1.299-0.506,2.519-1.424,3.437c-1.647,1.649-10.294,5.094-11.274,5.479l-1.78,0.704
			l0.704-1.781c0.386-0.979,3.83-9.627,5.478-11.274l0,0c1.896-1.895,4.979-1.895,6.873,0
			C66.032,291.282,66.539,292.501,66.539,293.8z M55.041,300.439c3.526-1.458,8.006-3.48,8.899-4.377
			c1.207-1.207,1.21-3.313,0-4.522c-1.246-1.246-3.276-1.247-4.523,0C58.522,292.432,56.499,296.913,55.041,300.439z"/>
	</g>
	<g>
		<path fill="#FFFFFF" d="M293.8,288.939c1.298,0,2.519,0.506,3.436,1.424c1.649,1.647,5.093,10.295,5.48,11.274l0.703,1.78
			l-1.78-0.704c-0.98-0.386-9.627-3.829-11.276-5.479l0,0c-1.894-1.896-1.894-4.979,0.001-6.873
			C291.282,289.445,292.501,288.938,293.8,288.939z M300.439,300.436c-1.459-3.524-3.482-8.006-4.378-8.897
			c-1.207-1.207-3.313-1.21-4.522,0c-1.246,1.246-1.247,3.275-0.001,4.522C292.431,296.955,296.913,298.978,300.439,300.436z"/>
	</g>
</g>
<circle fill="none" stroke="#FFFFFF" stroke-width="2" stroke-miterlimit="10" cx="177.94" cy="178.183" r="157.353"/>
<circle fill="none" stroke="#FFFFFF" stroke-width="2" stroke-miterlimit="10" cx="177.739" cy="177.384" r="111.175"/>
<text transform="matrix(1 0 0 1 114.7886 239.3313)" fill="#FFFFFF" font-family="'Montserrat-SemiBold'" font-size="176.053">C</text>
<text transform="matrix(1 0 0 1 379.1323 160.8196)" fill="#FFFFFF" font-family="'Montserrat-SemiBold'" font-size="82">Chocolate</text>
<text transform="matrix(1 0 0 1 376.4058 250.5393)" fill="#FFFFFF" font-family="'Montserrat-SemiBold'" font-size="82">Delights</text>
</svg>
