<svg xmlns="http://www.w3.org/2000/svg" width="24.063" height="23.47" viewBox="0 0 24.063 23.47">
  <defs>
    <style>
      .cls-1 {
        fill: #f0ede6;
        fill-rule: evenodd;
      }
    </style>
  </defs>
  <path id="Фигура_11" data-name="Фигура 11" class="cls-1" d="M937.533,6489.41h1.6v-3.17h3.193v-1.59H939.13v-3.17h-1.6v3.17h-3.192v1.59h3.192v3.17Zm-11.921,15.22c5.5,0,7.684-2.89,7.684-5.27,0-1.94-.728-3.21-2.932-4.85-2.236-1.62-2.782-2.53-.648-4.17a4.652,4.652,0,0,0,2.044-3.68,4.328,4.328,0,0,0-1.963-3.88h1.817l1.546-1.62h-6.921c-4.32,0-6.439,2.58-6.439,5.41,0,2.89,2,5.17,5.9,5.17a2.373,2.373,0,0,0,.628,3.13c-6.661,0-8.087,2.9-8.087,5.14C918.238,6502.91,921.592,6504.63,925.612,6504.63Zm-3.209-18.11c-0.323-2.43.929-4.29,2.794-4.24s3.461,2.05,3.783,4.49-0.752,4-2.617,3.94A4.5,4.5,0,0,1,922.4,6486.52Zm3.577,9.17c3.084,0,4.922,1.91,4.922,3.91,0,2.1-1.716,3.74-5.269,3.74-2.78,0-4.787-1.74-4.787-3.84C920.846,6497.44,923.2,6495.66,925.98,6495.69Z" transform="translate(-918.25 -6481.16)"/>
</svg>
