<svg xmlns="http://www.w3.org/2000/svg" width="47" height="47" viewBox="0 0 47 47">
  <defs>
    <style>
      .cls-1 {
        fill: #fff;
        fill-rule: evenodd;
      }
    </style>
  </defs>
  <path class="cls-1" d="M479.611,849.864V848.3H466.364v-0.784h13.247v-4.7a7.825,7.825,0,0,0-7.792-7.84h-3.9v-0.785a2.338,2.338,0,1,0-4.675,0v0.785h-3.9a7.825,7.825,0,0,0-7.792,7.84v4.7h13.246V848.3H451.559v1.568A1.565,1.565,0,0,1,450,851.432V853h31.169v-1.568A1.565,1.565,0,0,1,479.611,849.864ZM465.585,833.4a0.782,0.782,0,0,1,.779.784v0.784h-1.558v-0.784h0A0.782,0.782,0,0,1,465.585,833.4Zm-12.468,12.544v-3.136h0a6.26,6.26,0,0,1,6.234-6.272h12.468a6.259,6.259,0,0,1,6.233,6.272v3.136H453.117Zm-0.418,5.488a3.131,3.131,0,0,0,.418-1.568h24.935a3.122,3.122,0,0,0,.419,1.568H452.7Zm41.717-37.87h0a2.587,2.587,0,0,1-1.146,2.154,2.549,2.549,0,0,1-1.428.435h-7.556l-8.276,2.243a3.062,3.062,0,0,1-.815.109,1.042,1.042,0,0,1-1.039-1.044v-0.231a1.046,1.046,0,0,1,.535-0.914l6.078-3.4-0.757-1.371-1.226.685h-3.618a6.947,6.947,0,0,0-2.218.363l-5.7,1.913a1.5,1.5,0,0,1-.47.076H466.29a1.5,1.5,0,0,1-.468-2.912l6.841-2.294a5.422,5.422,0,0,1,1.725-.282H492.2l4.8-1.609L496.507,806l-4.555,1.527H474.388a6.974,6.974,0,0,0-2.218.362l-6.842,2.3a3.064,3.064,0,0,0,.962,5.966h0.485a3,3,0,0,0,.963-0.157l5.7-1.912a5.4,5.4,0,0,1,1.726-.283h0.812l-2.047,1.144a2.619,2.619,0,0,0-1.335,2.285v0.23a2.608,2.608,0,0,0,2.6,2.613,4.594,4.594,0,0,0,1.226-.165l7.97-2.187h7.451a4.1,4.1,0,0,0,2.292-.7,4.151,4.151,0,0,0,1.833-3.222h0.787v-1.568h-2.338v1.331h0Zm-29.611,9.646h1.559v4.7h-1.559v-4.7Zm-6.383,2.66,3.3,3.325-1.1,1.109-3.305-3.326Zm-3.747,5.963h4.676V833.4h-4.676v-1.569Zm17.143,0h4.676V833.4h-4.676v-1.569Zm-1.274-1.528-1.1-1.109,3.306-3.325,1.1,1.108Z" transform="translate(-450 -806)"/>
</svg>
