<svg xmlns="http://www.w3.org/2000/svg" width="19.094" height="19.594" viewBox="0 0 19.094 19.594">
  <defs>
    <style>
      .cls-1 {
        fill: #f0ede6;
        fill-rule: evenodd;
      }
    </style>
  </defs>
  <path id="Фигура_12" data-name="Фигура 12" class="cls-1" d="M434.442,31.217a4.815,4.815,0,0,1,3.477,1.489h6.071V30.173h0a3.815,3.815,0,0,0-3.773-3.856H429.911v4.861h-0.774V26.317h-0.446l-0.088,0v4.859H427.83V26.419a3.681,3.681,0,0,0-.545.176v4.584h-0.773V27.027a3.874,3.874,0,0,0-1.593,3.147v2.533h6.047A4.811,4.811,0,0,1,434.442,31.217Zm4.575-2.669a0.612,0.612,0,0,1,.605-0.619h2.039a0.612,0.612,0,0,1,.606.619v2.13a0.612,0.612,0,0,1-.606.619h-2.039a0.612,0.612,0,0,1-.605-0.619v-2.13Zm-2.1,4.768a3.793,3.793,0,0,0-.925-0.61,3.671,3.671,0,0,0-3.1,0,3.787,3.787,0,0,0-.924.61,3.871,3.871,0,0,0-1.284,2.889,3.76,3.76,0,1,0,7.519,0A3.874,3.874,0,0,0,436.918,33.317Zm-2.464,5.73a2.841,2.841,0,1,1,2.779-2.841A2.81,2.81,0,0,1,434.454,39.047Zm-5.763,6.87h11.527a3.815,3.815,0,0,0,3.773-3.856V33.317h-5.572a5.041,5.041,0,0,1,.9,2.889,4.881,4.881,0,1,1-9.76,0,5.041,5.041,0,0,1,.9-2.889h-5.546v8.744A3.815,3.815,0,0,0,428.691,45.917Z" transform="translate(-424.906 -26.313)"/>
</svg>
