<svg xmlns="http://www.w3.org/2000/svg" width="33" height="33" viewBox="0 0 33 33">
  <defs>
    <style>
      .cls-1 {
        fill: #fff;
        fill-rule: evenodd;
      }
    </style>
  </defs>
  <path id="Shape_1_копия" data-name="Shape 1 копия" class="cls-1" d="M862.5,1015A16.5,16.5,0,1,0,846,998.5,16.518,16.518,0,0,0,862.5,1015Zm0-31.352A14.851,14.851,0,1,1,847.648,998.5,14.868,14.868,0,0,1,862.5,983.648Zm-7.752,15.437,4.637,4.635a0.826,0.826,0,0,0,1.164,0,0.815,0.815,0,0,0,0-1.16l-3.23-3.233h12.347a0.828,0.828,0,1,0,0-1.655h-12.34l3.229-3.23a0.823,0.823,0,0,0-1.164-1.164l-4.636,4.637A0.837,0.837,0,0,0,854.747,999.085Z" transform="translate(-846 -982)"/>
</svg>
