<svg xmlns="http://www.w3.org/2000/svg" width="34" height="48" viewBox="0 0 34 48">
  <defs>
    <style>
      .cls-1 {
        fill: #fff;
        fill-rule: evenodd;
      }
    </style>
  </defs>
  <path id="Forma_1" data-name="Forma 1" class="cls-1" d="M1021,831.887a8.22,8.22,0,1,1,7.89-8.214A8.068,8.068,0,0,1,1021,831.887Zm0-14.98a6.773,6.773,0,1,0,6.5,6.768A6.649,6.649,0,0,0,1021,816.907Zm0,37.1a0.686,0.686,0,0,1-.54-0.259c-0.67-.835-16.47-20.556-16.47-30.074,0-9.751,7.63-17.684,17.01-17.684s17,7.933,17,17.684c0,9.519-15.8,29.239-16.47,30.075A0.684,0.684,0,0,1,1021,854.008Zm0-46.571c-8.61,0-15.62,7.284-15.62,16.238,0,8.056,12.82,24.894,15.62,28.47,2.79-3.578,15.61-20.416,15.61-28.47C1036.61,814.721,1029.6,807.437,1021,807.437Z" transform="translate(-1004 -806)"/>
</svg>
