<svg xmlns="http://www.w3.org/2000/svg" width="33" height="33" viewBox="0 0 33 33">
  <defs>
    <style>
      .cls-1 {
        fill: #fff;
        fill-rule: evenodd;
      }
    </style>
  </defs>
  <path class="cls-1" d="M1058.5,982a16.5,16.5,0,1,0,16.5,16.5A16.518,16.518,0,0,0,1058.5,982Zm0,31.35a14.851,14.851,0,1,1,14.85-14.85A14.865,14.865,0,0,1,1058.5,1013.35Zm7.75-15.435-4.64-4.637a0.815,0.815,0,0,0-1.16,0,0.826,0.826,0,0,0,0,1.164l3.23,3.23h-12.35a0.828,0.828,0,1,0,0,1.655h12.34l-3.23,3.233a0.821,0.821,0,0,0,0,1.16,0.833,0.833,0,0,0,1.17,0l4.63-4.635a0.793,0.793,0,0,0,.25-0.585A0.821,0.821,0,0,0,1066.25,997.915Z" transform="translate(-1042 -982)"/>
</svg>
