<svg xmlns="http://www.w3.org/2000/svg" width="19.03" height="19" viewBox="0 0 19.03 19">
  <defs>
    <style>
      .cls-1 {
        fill: #fff;
        fill-rule: evenodd;
      }
    </style>
  </defs>
  <path class="cls-1" d="M1334.33,47.991c0.09,0,.18.009,0.27,0.009a3.174,3.174,0,0,0,2.43-1.043c0.01,0,.01-0.012.02-0.017a8.839,8.839,0,0,1,.76-0.781c0.18-.178.38-0.36,0.55-0.55a1.915,1.915,0,0,0,0-2.86l-2.37-2.358a1.944,1.944,0,0,0-1.41-.645,2.008,2.008,0,0,0-1.42.637l-1.4,1.395c-0.12-.07-0.25-0.132-0.38-0.194-0.15-.079-0.3-0.153-0.43-0.232a15.037,15.037,0,0,1-3.56-3.231,8.275,8.275,0,0,1-1.19-1.9c0.37-.331.71-0.674,1.04-1.009,0.12-.12.24-0.244,0.36-0.368a1.869,1.869,0,0,0,0-2.863l-1.17-1.171c-0.14-.137-0.27-0.273-0.41-0.406-0.26-.265-0.53-0.542-0.8-0.79a1.953,1.953,0,0,0-1.4-.617,2.068,2.068,0,0,0-1.42.617l-1.47,1.465a3.021,3.021,0,0,0-.91,1.949,7.329,7.329,0,0,0,.54,3.153,18.676,18.676,0,0,0,3.28,5.453,20.278,20.278,0,0,0,6.73,5.247A10.424,10.424,0,0,0,1334.33,47.991Zm-9.7-7a17.618,17.618,0,0,1-3.11-5.155,6.334,6.334,0,0,1-.49-2.719,2.065,2.065,0,0,1,.62-1.316l1.47-1.46a1.034,1.034,0,0,1,.71-0.326,1,1,0,0,1,.69.331q0.39,0.365.78,0.77c0.14,0.136.27,0.277,0.41,0.414l1.18,1.17a0.892,0.892,0,0,1,0,1.432c-0.13.124-.25,0.248-0.37,0.373-0.37.368-.71,0.715-1.08,1.051-0.01.007-.02,0.012-0.03,0.02a0.8,0.8,0,0,0-.2.9,0.043,0.043,0,0,1,.01.033,9.479,9.479,0,0,0,1.39,2.246,15.723,15.723,0,0,0,3.81,3.455c0.17,0.108.35,0.2,0.52,0.286s0.3,0.153.43,0.231c0.02,0.009.03,0.016,0.05,0.025a0.85,0.85,0,0,0,.39.1,0.81,0.81,0,0,0,.6-0.277l1.48-1.469a1,1,0,0,1,.7-0.339,0.984,0.984,0,0,1,.68.339l2.38,2.367a0.926,0.926,0,0,1-.02,1.444c-0.16.178-.34,0.344-0.52,0.522-0.28.265-.56,0.542-0.83,0.852a2.131,2.131,0,0,1-1.67.7c-0.07,0-.14,0-0.2-0.008a9.524,9.524,0,0,1-3.39-1.01A18.989,18.989,0,0,1,1324.63,40.986Z" transform="translate(-1320 -29)"/>
</svg>
