<svg xmlns="http://www.w3.org/2000/svg" width="33" height="49" viewBox="0 0 33 49">
  <defs>
    <style>
      .cls-1 {
        fill: #fff;
        fill-rule: evenodd;
      }
    </style>
  </defs>
  <path id="Forma_1" data-name="Forma 1" class="cls-1" d="M749.974,812.753h-5.05a0.77,0.77,0,0,0,0,1.539h5.05A0.77,0.77,0,0,0,749.974,812.753Zm11.731,3.335H760.94v-1.642a4.618,4.618,0,0,0-4.591-4.617h-7.4l4.845-3.437a0.753,0.753,0,0,0,.153-1.078,0.743,0.743,0,0,0-1.071-.154l-6.07,4.361-6.069-4.361a0.79,0.79,0,0,0-1.071.154,0.8,0.8,0,0,0,.153,1.078l4.845,3.437h-6.018a4.618,4.618,0,0,0-4.591,4.617v1.642H733.3A2.292,2.292,0,0,0,731,818.4v5.079a0.765,0.765,0,1,0,1.53,0V818.4a0.787,0.787,0,0,1,.765-0.769h0.765v22.06a4.57,4.57,0,0,0,3.775,4.514l-4.489,8.67a0.766,0.766,0,0,0,.306,1.026,0.93,0.93,0,0,0,.357.1,0.734,0.734,0,0,0,.663-0.411l1.633-3.18h22.186l1.633,3.18a0.8,0.8,0,0,0,.663.411,0.93,0.93,0,0,0,.357-0.1,0.766,0.766,0,0,0,.306-1.026l-4.489-8.67a4.592,4.592,0,0,0,3.928-4.566v-22.06h0.765a0.787,0.787,0,0,1,.765.77v5.079a0.922,0.922,0,0,0,.816.821,0.787,0.787,0,0,0,.765-0.77V818.4A2.292,2.292,0,0,0,761.705,816.088Zm-26.115-1.642a3.079,3.079,0,0,1,3.061-3.078H756.4a3.078,3.078,0,0,1,3.06,3.078v1.642H735.59v-1.642h0Zm22.187,34.475H737.121l2.4-4.566H755.38Zm-1.377-6.156H738.651a3.079,3.079,0,0,1-3.061-3.078v-6.208h23.819v6.259A2.96,2.96,0,0,1,756.4,842.765Zm2.958-10.825H735.59V817.627h23.87V831.94h-0.1Zm-19.942,1.9a2.412,2.412,0,1,0,2.4,2.411A2.4,2.4,0,0,0,739.416,833.838Zm0,3.335a0.873,0.873,0,1,1,.867-0.872A0.9,0.9,0,0,1,739.416,837.173Zm16.423-3.335a2.412,2.412,0,1,0,2.4,2.411A2.4,2.4,0,0,0,755.839,833.838Zm0,3.335a0.873,0.873,0,0,1,0-1.745A0.873,0.873,0,0,1,755.839,837.173Zm-6.375-1.642h-4.693a0.77,0.77,0,0,0,0,1.539h4.693A0.77,0.77,0,0,0,749.464,835.531Z" transform="translate(-731 -805)"/>
</svg>
