<svg xmlns="http://www.w3.org/2000/svg" width="24.094" height="19.38" viewBox="0 0 24.094 19.38">
  <defs>
    <style>
      .cls-1 {
        fill: #f0ede6;
        fill-rule: evenodd;
      }
    </style>
  </defs>
  <path id="Фигура_10" data-name="Фигура 10" class="cls-1" d="M971.473,6500.2a14.159,14.159,0,0,0,7.576,2.19,13.893,13.893,0,0,0,14.048-14.54,9.894,9.894,0,0,0,2.466-2.54,9.684,9.684,0,0,1-2.839.77,4.893,4.893,0,0,0,2.173-2.7,10,10,0,0,1-3.138,1.19,4.966,4.966,0,0,0-3.608-1.55,4.912,4.912,0,0,0-4.814,6.01,14.1,14.1,0,0,1-10.186-5.11,4.866,4.866,0,0,0,1.529,6.53,4.982,4.982,0,0,1-2.239-.62,4.906,4.906,0,0,0,3.964,4.86,4.911,4.911,0,0,1-2.231.08,4.934,4.934,0,0,0,4.616,3.4A10.049,10.049,0,0,1,971.473,6500.2Z" transform="translate(-971.469 -6483.03)"/>
</svg>
