<svg xmlns="http://www.w3.org/2000/svg" width="62" height="62" viewBox="0 0 62 62"><path class="c1" d="M32.723 37.3a.757.757 0 0 0-.752.76 8.473 8.473 0 0 1-2.392 5.97 8.187 8.187 0 0 1-5.875 2.5 8.366 8.366 0 0 1-8.394-8.35 8.423 8.423 0 0 1 2.392-5.96 8.2 8.2 0 0 1 5.875-2.51.755.755 0 0 0 0-1.51 9.733 9.733 0 0 0-6.928 2.95 9.99 9.99 0 0 0 .087 14.05 9.762 9.762 0 0 0 13.906-.1 9.933 9.933 0 0 0 2.83-7.04.757.757 0 0 0-.75-.76zm12.8 5.11l-2.894-1.22a.752.752 0 0 0-.577 1.39l2.894 1.22a1.286 1.286 0 0 1 .69 1.68l-1.3 3.17a1.26 1.26 0 0 1-1.667.7l-2.894-1.21a.75.75 0 0 0-.915.27 18.19 18.19 0 0 1-5.035 5.09.755.755 0 0 0-.276.92l1.2 2.92a1.354 1.354 0 0 1 0 .99 1.267 1.267 0 0 1-.69.69l-3.157 1.32a1.37 1.37 0 0 1-.977 0 1.253 1.253 0 0 1-.69-.7l-1.2-2.92a.77.77 0 0 0-.838-.46 17.466 17.466 0 0 1-7.128 0 .748.748 0 0 0-.84.46l-1.2 2.92a1.274 1.274 0 0 1-1.667.7l-3.144-1.32a1.284 1.284 0 0 1-.69-1.68l1.2-2.92a.76.76 0 0 0-.276-.92 18.387 18.387 0 0 1-5.036-5.09.745.745 0 0 0-.915-.27L4.61 49.35a1.273 1.273 0 0 1-.978 0 1.253 1.253 0 0 1-.69-.7l-1.3-3.18a1.354 1.354 0 0 1 0-.99 1.207 1.207 0 0 1 .69-.69l2.894-1.22a.775.775 0 0 0 .45-.85 18.528 18.528 0 0 1 0-7.19.753.753 0 0 0-.45-.85l-2.906-1.2a1.284 1.284 0 0 1-.69-1.68l1.3-3.17a1.265 1.265 0 0 1 1.667-.7l2.894 1.21a.748.748 0 0 0 .915-.27 18.2 18.2 0 0 1 5.036-5.09.754.754 0 0 0 .277-.92l-1.2-2.92a1.354 1.354 0 0 1 0-.99 1.24 1.24 0 0 1 .69-.69l3.156-1.32a1.373 1.373 0 0 1 .978 0 1.256 1.256 0 0 1 .69.7l1.2 2.92a.733.733 0 0 0 .977.4.74.74 0 0 0 .4-.98l-1.2-2.92a2.8 2.8 0 0 0-2.57-1.74 2.8 2.8 0 0 0-1.064.22l-3.156 1.31a2.826 2.826 0 0 0-1.5 1.52 2.783 2.783 0 0 0 0 2.15l.965 2.35a19.84 19.84 0 0 0-4.6 4.64l-2.33-.97a2.716 2.716 0 0 0-2.13 0 2.764 2.764 0 0 0-1.5 1.52l-1.3 3.17a2.824 2.824 0 0 0 1.5 3.67l2.33.97a19.84 19.84 0 0 0 0 6.56l-2.33.98a2.726 2.726 0 0 0-1.478 1.5 2.783 2.783 0 0 0 0 2.15l1.3 3.19a2.828 2.828 0 0 0 1.5 1.52 2.716 2.716 0 0 0 2.13 0l2.33-.98a19.553 19.553 0 0 0 4.6 4.64l-.977 2.35a2.82 2.82 0 0 0 1.5 3.67l3.144 1.32a2.78 2.78 0 0 0 3.635-1.52l.964-2.35a19.707 19.707 0 0 0 6.5 0l.964 2.35a2.828 2.828 0 0 0 1.5 1.52 2.716 2.716 0 0 0 2.13 0l3.157-1.32a2.82 2.82 0 0 0 1.5-3.67l-.964-2.35a19.65 19.65 0 0 0 4.6-4.64l2.33.98a2.716 2.716 0 0 0 2.13 0 2.828 2.828 0 0 0 1.5-1.52l1.3-3.18a2.808 2.808 0 0 0-1.49-3.66zm-1.64-31.23a7.105 7.105 0 1 0 7.04 7.1 7.074 7.074 0 0 0-7.038-7.1zm0 12.68a5.59 5.59 0 1 1 5.536-5.59 5.563 5.563 0 0 1-5.535 5.59zm15.884-9.08H58.1a14.377 14.377 0 0 0-1.717-4.17l1.178-1.19a2.232 2.232 0 0 0 .653-1.59 2.255 2.255 0 0 0-.652-1.6l-1.753-1.77a2.188 2.188 0 0 0-1.578-.66 2.21 2.21 0 0 0-1.58.66l-1.177 1.19a14.52 14.52 0 0 0-4.134-1.73V2.25A2.245 2.245 0 0 0 45.11 0h-2.482a2.244 2.244 0 0 0-2.23 2.25v1.68a14.5 14.5 0 0 0-4.134 1.73l-1.178-1.18a2.218 2.218 0 0 0-3.157 0l-1.755 1.77a2.22 2.22 0 0 0-.65 1.59 2.253 2.253 0 0 0 .65 1.59l1.178 1.19a14.743 14.743 0 0 0-1.716 4.17H27.97a2.244 2.244 0 0 0-2.23 2.25v2.51a2.244 2.244 0 0 0 2.23 2.25h1.667a14.4 14.4 0 0 0 1.716 4.17l-1.178 1.19a2.22 2.22 0 0 0-.65 1.59 2.276 2.276 0 0 0 .65 1.6l1.754 1.76a2.218 2.218 0 0 0 3.156 0l1.178-1.18a14.786 14.786 0 0 0 4.134 1.73v1.68a2.244 2.244 0 0 0 2.23 2.25h2.48a2.245 2.245 0 0 0 2.23-2.25v-1.68a14.52 14.52 0 0 0 4.135-1.73l1.177 1.18a2.218 2.218 0 0 0 3.157 0l1.754-1.76a2.277 2.277 0 0 0 0-3.19l-1.177-1.19A14.746 14.746 0 0 0 58.1 21.8h1.666a2.244 2.244 0 0 0 2.23-2.25v-2.51a2.248 2.248 0 0 0-2.226-2.26zm-.013 5.47h-2.28a.76.76 0 0 0-.74.61 13.147 13.147 0 0 1-1.953 4.76.77.77 0 0 0 .088.96l1.617 1.63a.73.73 0 0 1 0 1.03l-1.754 1.77a.708.708 0 0 1-.513.22.73.73 0 0 1-.514-.22l-1.616-1.63a.744.744 0 0 0-.952-.08 12.94 12.94 0 0 1-4.71 1.97.75.75 0 0 0-.6.74v2.31a.73.73 0 0 1-.727.73h-2.48a.73.73 0 0 1-.727-.73V32a.744.744 0 0 0-.6-.74 12.874 12.874 0 0 1-4.71-1.98.758.758 0 0 0-.95.09L34.012 31a.71.71 0 0 1-1.027 0l-1.754-1.77a.73.73 0 0 1 0-1.03l1.616-1.64a.766.766 0 0 0 .087-.96 13.1 13.1 0 0 1-1.954-4.75.76.76 0 0 0-.738-.61h-2.28a.73.73 0 0 1-.727-.73v-2.5a.733.733 0 0 1 .727-.74h2.28a.75.75 0 0 0 .74-.61 13.1 13.1 0 0 1 1.953-4.75.768.768 0 0 0-.087-.96l-1.616-1.63a.728.728 0 0 1-.213-.52.745.745 0 0 1 .212-.52l1.754-1.77a.733.733 0 0 1 1.027 0l1.616 1.63a.745.745 0 0 0 .95.09 12.948 12.948 0 0 1 4.71-1.97.763.763 0 0 0 .6-.75V2.25a.73.73 0 0 1 .727-.73H45.1a.73.73 0 0 1 .727.73v2.3a.762.762 0 0 0 .6.75 12.855 12.855 0 0 1 4.71 1.97.716.716 0 0 0 .414.13.727.727 0 0 0 .527-.23l1.616-1.63a.708.708 0 0 1 .514-.22.728.728 0 0 1 .513.22l1.754 1.77a.73.73 0 0 1 0 1.03l-1.616 1.64a.767.767 0 0 0-.088.96 13.1 13.1 0 0 1 1.955 4.75.76.76 0 0 0 .74.61h2.28a.73.73 0 0 1 .725.73v2.49h.013a.724.724 0 0 1-.726.73z"/></svg>