<svg xmlns="http://www.w3.org/2000/svg" width="45" height="58" viewBox="0 0 45 58"><path data-name="Forma 1" class="cls-1" d="M44.02 7.71C29.74 7.71 23.34.42 23.25.32a1.017 1.017 0 0 0-1.5 0c-.06.07-6.4 7.39-20.77 7.39a.971.971 0 0 0-.98.96v18.46a32.584 32.584 0 0 0 12.27 25.65 30.028 30.028 0 0 0 9.95 5.18 1 1 0 0 0 .56 0 30.028 30.028 0 0 0 9.95-5.18A32.584 32.584 0 0 0 45 27.13V8.68a.973.973 0 0 0-.98-.97zm-.98 19.42a30.6 30.6 0 0 1-11.52 24.13 27.844 27.844 0 0 1-9.02 4.76 27.844 27.844 0 0 1-9.02-4.76A30.6 30.6 0 0 1 1.96 27.13V9.63c11.97-.26 18.45-5.31 20.54-7.3 2.09 1.99 8.57 7.04 20.54 7.3v17.5zM13.41 28.3a.978.978 0 0 0-1.38 0 .948.948 0 0 0 0 1.37l7.82 7.74a.993.993 0 0 0 .69.28h.04a.989.989 0 0 0 .7-.33l13.69-15.47a.958.958 0 0 0-.09-1.37.99.99 0 0 0-1.38.09l-13 14.7z"/></svg>