<svg xmlns="http://www.w3.org/2000/svg" width="62" height="62" viewBox="0 0 62 62"><path class="cls-1" d="M31.759 51.45v-6.11a.759.759 0 1 0-1.518 0v6.11a5.3 5.3 0 1 0 1.518 0zM31 60.47a3.785 3.785 0 1 1 3.783-3.78A3.787 3.787 0 0 1 31 60.47zM31 0a5.3 5.3 0 0 0-.759 10.55v6.11a.759.759 0 0 0 1.518-.01v-6.1A5.3 5.3 0 0 0 31 0zm0 9.08a3.78 3.78 0 1 1 3.783-3.78A3.781 3.781 0 0 1 31 9.08zm25.7 16.61a5.321 5.321 0 0 0-5.251 4.54h-6.111a.76.76 0 0 0 0 1.52h6.111a5.3 5.3 0 1 0 5.251-6.06zm0 9.09a3.785 3.785 0 1 1 3.784-3.79 3.79 3.79 0 0 1-3.784 3.79zm-40.034-4.55h-6.111a5.3 5.3 0 1 0 0 1.52h6.111a.76.76 0 0 0-.002-1.52zM5.304 34.78a3.785 3.785 0 1 1 3.783-3.79A3.79 3.79 0 0 1 5.3 34.78zm47.6 10.62a5.308 5.308 0 0 0-6.908-.49l-4.315-4.32a.762.762 0 0 0-1.075 1.08l4.314 4.31a5.3 5.3 0 1 0 7.98-.58zm-1.05 6.44a3.774 3.774 0 0 1-2.67 1.11 3.71 3.71 0 0 1-2.669-1.11 3.785 3.785 0 0 1 2.669-6.46 3.711 3.711 0 0 1 2.67 1.11 3.769 3.769 0 0 1-.002 5.35zM21.386 20.33l-4.315-4.32a5.314 5.314 0 0 0-.494-6.93 5.3 5.3 0 0 0-7.49 0 5.318 5.318 0 0 0 0 7.5 5.3 5.3 0 0 0 6.921.51l4.315 4.31a.719.719 0 0 0 .531.23.7.7 0 0 0 .532-.23.765.765 0 0 0-.002-1.07zm-5.9-4.83a3.806 3.806 0 0 1-2.669 1.1 3.7 3.7 0 0 1-2.67-1.1 3.79 3.79 0 0 1 2.67-6.47 3.732 3.732 0 0 1 2.669 1.11 3.789 3.789 0 0 1 .001 5.36zm37.428-6.43a5.3 5.3 0 0 0-7.984 6.92l-4.315 4.31a.777.777 0 0 0 0 1.08.761.761 0 0 0 .532.23.738.738 0 0 0 .531-.23l4.315-4.32a5.171 5.171 0 0 0 3.176 1.07 5.31 5.31 0 0 0 3.746-9.06zm-1.075 6.43a3.82 3.82 0 0 1-2.67 1.11 3.742 3.742 0 0 1-2.67-1.1 3.8 3.8 0 0 1 2.67-6.48 3.736 3.736 0 0 1 2.67 1.11 3.79 3.79 0 0 1 .001 5.36zM21.383 40.61a.774.774 0 0 0-1.076 0l-4.3 4.3A5.372 5.372 0 1 0 17.07 46l4.315-4.32a.765.765 0 0 0-.001-1.07zm-5.884 11.23a3.776 3.776 0 0 1-2.67 1.11 3.736 3.736 0 0 1-2.67-1.11 3.785 3.785 0 0 1 2.67-6.46 3.714 3.714 0 0 1 2.67 1.11 3.778 3.778 0 0 1 .001 5.35zm16.98-21.63h-2.948a2.48 2.48 0 0 1 0-4.96h5.213a.76.76 0 0 0 0-1.52h-2.986V21.4a.759.759 0 1 0-1.518 0v2.33h-.722a4 4 0 0 0 0 8h2.949a2.48 2.48 0 0 1 0 4.96h-5.315a.755.755 0 1 0 0 1.51h3.088v2.37a.759.759 0 1 0 1.518 0V38.2h.721a4 4 0 1 0 .001-7.99z"/></svg>