<svg xmlns="http://www.w3.org/2000/svg" width="58" height="58" viewBox="0 0 58 58"><path class="cls-1" d="M54.32 23.65h-1.33a23.446 23.446 0 0 0-7.21-10.01c-.02-.06-.03-.11-.05-.17a7.034 7.034 0 0 1 1.12-5.8 2.5 2.5 0 0 0-.02-2.73 2.551 2.551 0 0 0-2.49-1.17 12.39 12.39 0 0 0-8.66 4.58 30.562 30.562 0 0 0-4.88-.98.917.917 0 0 0-1.03.8.928.928 0 0 0 .8 1.03 29.1 29.1 0 0 1 5.18 1.1.925.925 0 0 0 1.05-.37c1.15-1.69 3.42-3.81 7.77-4.35a.754.754 0 0 1 .7.33.7.7 0 0 1 0 .76 8.911 8.911 0 0 0-1.33 7.29 1.25 1.25 0 0 1 .03.19.978.978 0 0 0 .34.69 21.678 21.678 0 0 1 7.13 10.02.9.9 0 0 0 .88.63h2.01a1.829 1.829 0 0 1 1.83 1.82v6.73a1.829 1.829 0 0 1-1.83 1.82h-1.9a.915.915 0 0 0-.88.64c-1.07 3.45-5.9 9.09-6.39 9.68l-.36.3-.01.02a9.69 9.69 0 0 0-3.37 6.86v2.24a.551.551 0 0 1-.56.55h-9.08a.551.551 0 0 1-.56-.55v-2.12a.927.927 0 0 0-.31-.69.941.941 0 0 0-.71-.23 30.144 30.144 0 0 1-6.98-.1 1 1 0 0 0-.74.22.93.93 0 0 0-.33.69v2.23a.542.542 0 0 1-.55.55h-9.09a.547.547 0 0 1-.55-.5v-.77a13.607 13.607 0 0 0-3.67-8.7 22.78 22.78 0 0 1-4.22-6.36.077.077 0 0 0-.02-.03 19.735 19.735 0 0 1-1.64-4.35v-.03l-.01-.06c0-.01 0-.01-.02-.03a16.059 16.059 0 0 1-.52-4.44v-.03a19.993 19.993 0 0 1 .26-3.19.927.927 0 0 0-1.83-.3A22.155 22.155 0 0 0 0 30.83a18.248 18.248 0 0 0 .6 5l.02.04a21.739 21.739 0 0 0 1.78 4.74 24.787 24.787 0 0 0 4.56 6.84 11.8 11.8 0 0 1 3.16 7.49v.81A2.4 2.4 0 0 0 12.53 58h9.08a2.418 2.418 0 0 0 2.42-2.4v-1.2a32.668 32.668 0 0 0 5.33.08v1.12a2.418 2.418 0 0 0 2.42 2.4h9.08a2.409 2.409 0 0 0 2.41-2.4v-2.21a8.045 8.045 0 0 1 2.76-5.52l.38-.34a.9.9 0 0 1 .1-.09c.21-.25 5.01-5.77 6.57-9.74h1.24A3.679 3.679 0 0 0 58 34.04v-6.73a3.679 3.679 0 0 0-3.68-3.66zM12.27 0a12.07 12.07 0 1 0 12.14 12.07A12.134 12.134 0 0 0 12.27 0zm0 22.3a10.225 10.225 0 1 1 10.29-10.23A10.268 10.268 0 0 1 12.27 22.3z"/></svg>