<svg xmlns="http://www.w3.org/2000/svg" width="58" height="58" viewBox="0 0 58 58"><path data-name="Forma 1" class="cls-1" d="M22.66 21.75a.905.905 0 1 1-1.81 0 7.2 7.2 0 0 1 2.12-5.12l.06-.06a7.231 7.231 0 0 1 10.19.06 7.2 7.2 0 0 1 2.13 5.12.91.91 0 1 1-1.82 0 5.41 5.41 0 0 0-1.58-3.84l-.01-.01a5.457 5.457 0 0 0-7.64-.04l-.05.05a5.419 5.419 0 0 0-1.59 3.84zm10.56-5.12v1.28a.911.911 0 0 0 0-1.28zM19.86 35.35a.905.905 0 1 1 1.81 0 6.326 6.326 0 0 0 1.85 4.48h.01a6.337 6.337 0 0 0 8.97 0h-.01a6.337 6.337 0 0 0 0-8.97l-.04-.04a6.317 6.317 0 0 0-4.44-1.81.91.91 0 0 1 0-1.82 8.151 8.151 0 0 1 5.71 2.34l.06.05a8.184 8.184 0 0 1 0 11.54l-.01-.01v.01a8.16 8.16 0 0 1-11.52 0v-.01a8.126 8.126 0 0 1-2.39-5.76zm7.33-24.83a.905.905 0 1 1 1.81 0v4.89a.905.905 0 0 1-1.81 0v-4.89zm-.09 32.07a.91.91 0 0 1 1.82 0v4.25a.91.91 0 0 1-1.82 0v-4.25zm-6.25-20.83a.905.905 0 1 1 1.81 0 5.419 5.419 0 0 0 1.59 3.84l.05.05a5.444 5.444 0 0 0 3.8 1.54.905.905 0 0 1 0 1.81 7.236 7.236 0 0 1-5.07-2.07l-.06-.05a7.217 7.217 0 0 1-2.12-5.12zM56.19 29A27.194 27.194 0 0 0 29 1.81a27.19 27.19 0 0 0 0 54.38A27.194 27.194 0 0 0 56.19 29zM58 29a28.987 28.987 0 0 1-29 29 29 29 0 1 1 0-58 28.987 28.987 0 0 1 29 29z"/></svg>