<svg xmlns="http://www.w3.org/2000/svg" width="72" height="62" viewBox="0 0 72 62"><path class="cls-1" d="M65.822 21.34H49.834a.87.87 0 1 0 0 1.74h15.988a4.372 4.372 0 0 1 4.383 4.34v19.29a4.37 4.37 0 0 1-4.383 4.33h-4.133a.878.878 0 0 0-.883.87v7.17l-8.237-7.79a.864.864 0 0 0-.6-.25H33.86a4.37 4.37 0 0 1-4.383-4.33v-9.86a.883.883 0 0 0-1.765 0v9.86a6.116 6.116 0 0 0 6.148 6.07h17.768l9.473 8.97a.872.872 0 0 0 .617.25 1.1 1.1 0 0 0 .353-.07.857.857 0 0 0 .53-.8v-8.35h3.25A6.12 6.12 0 0 0 72 46.71V27.42a6.163 6.163 0 0 0-6.178-6.08zM38.42 0H6.192A6.168 6.168 0 0 0 0 6.12v19.44a6.159 6.159 0 0 0 6.192 6.11h3.28v8.41a.857.857 0 0 0 .53.8 1.107 1.107 0 0 0 .353.07.929.929 0 0 0 .618-.25l9.546-9.04h17.9a6.151 6.151 0 0 0 6.192-6.1V6.12A6.168 6.168 0 0 0 38.42 0zm4.427 25.56a4.4 4.4 0 0 1-4.427 4.37H20.166v-.01a.856.856 0 0 0-.6.24l-8.311 7.87v-7.24a.813.813 0 0 0-.264-.61.913.913 0 0 0-.618-.26H6.195a4.412 4.412 0 0 1-4.427-4.38V6.12a4.412 4.412 0 0 1 4.427-4.38H38.42a4.412 4.412 0 0 1 4.427 4.38v19.44z"/></svg>