<svg xmlns="http://www.w3.org/2000/svg" preserveAspectRatio="xMidYMid" viewBox="0 0 488 488" width="36" height="36"><path d="M416.5 71.5C370.4 25.4 309.2 0 244 0S117.6 25.4 71.5 71.5C25.4 117.6 0 178.8 0 244s25.4 126.4 71.5 172.5C117.6 462.6 178.8 488 244 488s126.4-25.4 172.5-71.5C462.6 370.4 488 309.2 488 244s-25.4-126.4-71.5-172.5zM244 476C116.1 476 12 371.9 12 244S116.1 12 244 12s232 104.1 232 232-104.1 232-232 232z" fill="#FFF"/><path d="M295.3 239.8L220 164.5c-2.3-2.3-6.1-2.3-8.5 0-2.3 2.3-2.3 6.1 0 8.5l71.1 71.1-71.1 71.1c-2.2 2.2-2.2 6 .1 8.4 1.2 1.2 2.7 1.8 4.2 1.8s3.1-.6 4.2-1.8l75.3-75.3c2.3-2.3 2.3-6.1 0-8.5z" fill="#FFF"/></svg>