<svg xmlns="http://www.w3.org/2000/svg" width="18" height="15" viewBox="0 0 18 15"><defs><style>.cls-1{fill:#fff;fill-rule:evenodd}</style></defs><path id="off" class="cls-1" d="M188.471 36.172l2.431-2.379a.321.321 0 0 0 0-.461.339.339 0 0 0-.472 0L188 35.71l-2.431-2.378a.337.337 0 0 0-.471 0 .321.321 0 0 0 0 .461l2.431 2.379-2.429 2.378a.322.322 0 0 0 0 .461.337.337 0 0 0 .471 0L188 36.633l2.431 2.379a.338.338 0 0 0 .472 0 .322.322 0 0 0 0-.461zm-6-7.045a1.029 1.029 0 0 0-1.03.014.332.332 0 0 0-.043.03l-4.517 3.739h-3.544a.33.33 0 0 0-.334.326v6.2a.32.32 0 0 0 .1.231.339.339 0 0 0 .236.1h3.536l4.515 4.057a.274.274 0 0 0 .053.039 1.028 1.028 0 0 0 1.03.014 1.015 1.015 0 0 0 .532-.9V30.026a1.016 1.016 0 0 0-.538-.899zm-.138 13.843a.374.374 0 0 1-.193.331.355.355 0 0 1-.334.009l-4.473-4.021V37.8a.334.334 0 0 0-.667 0v1.3h-3v-5.537h3v1.3a.334.334 0 0 0 .667 0v-1.48l4.468-3.7a.354.354 0 0 1 .339.006.374.374 0 0 1 .193.331v12.95z" transform="translate(-173 -29)"/></svg>