<svg xmlns="http://www.w3.org/2000/svg" width="17" height="15" viewBox="0 0 17 15"><defs><style>.cls-1{fill:#fff;fill-rule:evenodd}</style></defs><path id="on" class="cls-1" d="M182.281 29.127a.99.99 0 0 0-1.009.014.275.275 0 0 0-.043.03l-4.429 3.74h-3.475a.326.326 0 0 0-.326.326v6.2a.323.323 0 0 0 .1.231.327.327 0 0 0 .23.1h3.467l4.426 4.057a.274.274 0 0 0 .053.039.989.989 0 0 0 1.009.014 1.017 1.017 0 0 0 .522-.9V30.026a1.018 1.018 0 0 0-.525-.899zm-.132 13.843a.374.374 0 0 1-.189.331.342.342 0 0 1-.327.009l-4.385-4.021V37.8a.327.327 0 0 0-.654 0v1.3h-2.941v-5.537h2.941v1.3a.327.327 0 0 0 .654 0v-1.48l4.38-3.7a.34.34 0 0 1 .332.006.375.375 0 0 1 .189.331v12.95zm3.528-12.652a.326.326 0 0 0-.21.618 5.7 5.7 0 0 1 .008 10.8.326.326 0 1 0 .211.617 6.351 6.351 0 0 0-.009-12.034zm1.382 6.017a4.424 4.424 0 0 0-3.185-4.227.326.326 0 1 0-.181.627 3.746 3.746 0 0 1 0 7.2.326.326 0 1 0 .181.627 4.423 4.423 0 0 0 3.185-4.227z" transform="translate(-173 -29)"/></svg>