<svg xmlns="http://www.w3.org/2000/svg" width="58" height="58" viewBox="0 0 58 58"><path class="cls-1" d="M1.23 24.93q20.37-9.24 40.72-18.5l9-4.09c.38-.16.75-.34 1.13-.51 1.21-.55 2.44-1.12 3.68-1.65a1.857 1.857 0 0 1 .79-.18 1.38 1.38 0 0 1 1.03.42A1.462 1.462 0 0 1 58 1.5a2.1 2.1 0 0 1-.26.94.379.379 0 0 0-.06.13q-7.83 17.295-15.66 34.61l-8.84 19.56a1.745 1.745 0 0 1-1.6 1.26h-.09a1.665 1.665 0 0 1-1.5-1.3l-.01-.02c-.92-2.27-1.82-4.54-2.74-6.83-1.79-4.44-3.63-9.03-5.44-13.56-4.95-1.98-9.99-3.99-14.86-5.94-1.88-.74-3.75-1.51-5.63-2.25a1.625 1.625 0 0 1-.08-3.17zm.19 1.63a1.3 1.3 0 0 0 .41.2c1.89.75 3.75 1.5 5.64 2.26 4.96 1.99 10.08 4.05 15.13 6.04a.765.765 0 0 1 .4.41c1.85 4.62 3.73 9.31 5.56 13.85q1.38 3.4 2.74 6.82l.01.03a1.568 1.568 0 0 0 .19.39.145.145 0 0 0 .06.01h.02c.06 0 .11 0 .29-.41l8.84-19.56q7.83-17.31 15.66-34.61c.02-.06.06-.12.08-.18a.981.981 0 0 0 .12-.29v-.08a.47.47 0 0 0-.23.05c-1.23.53-2.47 1.1-3.66 1.64-.38.16-.75.34-1.13.51l-9 4.09q-20.355 9.255-40.73 18.5a2.045 2.045 0 0 0-.4.22v.05a.077.077 0 0 0 0 .06z"/></svg>