<svg xmlns="http://www.w3.org/2000/svg" width="70" height="62" viewBox="0 0 70 62"><path class="cls-1" d="M68.033 39.58a74.625 74.625 0 0 0-13.285-8.56v-8.35a5.077 5.077 0 0 0 1.894-3.95v-9.4A9.334 9.334 0 0 0 47.316 0h-2.022a9.33 9.33 0 0 0-9.326 9.32v9.4a5.077 5.077 0 0 0 1.894 3.95v8.35a74.657 74.657 0 0 0-13.286 8.56 5.43 5.43 0 0 0-1.965 4.19v6.44a.861.861 0 0 0 1.722 0v-6.44a3.669 3.669 0 0 1 1.334-2.85 72.2 72.2 0 0 1 13.2-8.46 1.274 1.274 0 0 0 .717-1.15v-9.05a.857.857 0 0 0-.387-.72 3.365 3.365 0 0 1-1.506-2.81V9.34a7.621 7.621 0 0 1 7.6-7.61h2.022a7.621 7.621 0 0 1 7.6 7.61v9.39a3.365 3.365 0 0 1-1.506 2.81.857.857 0 0 0-.387.72v9.05a1.274 1.274 0 0 0 .717 1.15 72.293 72.293 0 0 1 13.2 8.46 3.669 3.669 0 0 1 1.334 2.85v6.44a.861.861 0 0 0 1.722 0v-6.44a5.34 5.34 0 0 0-1.96-4.19zM20.287 9.21h-1.65a7.749 7.749 0 0 0-7.748 7.74v7.65a4.324 4.324 0 0 0 1.535 3.29v6.63a62.428 62.428 0 0 0-10.76 6.94A4.545 4.545 0 0 0 0 44.99v5.23a.909.909 0 0 0 .89.85.864.864 0 0 0 .86-.86v-5.23a2.793 2.793 0 0 1 1.033-2.2A59.616 59.616 0 0 1 13.5 35.91a1.189 1.189 0 0 0 .675-1.07v-7.38a.841.841 0 0 0-.388-.71 2.619 2.619 0 0 1-1.162-2.15v-7.65a6.029 6.029 0 0 1 6.026-6.02h1.65a6.033 6.033 0 0 1 6.026 6.02v7.65a2.571 2.571 0 0 1-1.162 2.15.841.841 0 0 0-.388.71v6.06a.861.861 0 0 0 1.722 0v-5.63a4.277 4.277 0 0 0 1.535-3.29v-7.65a7.749 7.749 0 0 0-7.747-7.74zm30 24.71a.861.861 0 1 0-1.721-.02 2.259 2.259 0 0 1-2.253 2.26 2.328 2.328 0 0 1-1.291-.41.62.62 0 0 0-.215-.17 2.216 2.216 0 0 1-.746-1.66.861.861 0 0 0-1.722 0 3.919 3.919 0 0 0 1.162 2.79l-.976 21.66a.806.806 0 0 0 .287.67l3.028 2.74a.858.858 0 0 0 1.147 0l2.985-2.69a.865.865 0 0 0 .286-.68l-.946-21.9a3.96 3.96 0 0 0 .974-2.59zm-3.873 26.06l-2.153-1.94.919-20.32a3.883 3.883 0 0 0 2.453-.06l.875 20.44z"/></svg>